<?xml version="1.0" encoding="utf-8" standalone="no"?>
<!DOCTYPE svg PUBLIC "-//W3C//DTD SVG 1.1//EN"
  "http://www.w3.org/Graphics/SVG/1.1/DTD/svg11.dtd">
<svg xmlns:xlink="http://www.w3.org/1999/xlink" width="220.656609pt" height="88.093375pt" viewBox="0 0 220.656609 88.093375" xmlns="http://www.w3.org/2000/svg" version="1.1">
 <metadata>
  <rdf:RDF xmlns:dc="http://purl.org/dc/elements/1.1/" xmlns:cc="http://creativecommons.org/ns#" xmlns:rdf="http://www.w3.org/1999/02/22-rdf-syntax-ns#">
   <cc:Work>
    <dc:type rdf:resource="http://purl.org/dc/dcmitype/StillImage"/>
    <dc:date>2026-03-15T17:10:23.497680</dc:date>
    <dc:format>image/svg+xml</dc:format>
    <dc:creator>
     <cc:Agent>
      <dc:title>Matplotlib v3.10.7, https://matplotlib.org/</dc:title>
     </cc:Agent>
    </dc:creator>
   </cc:Work>
  </rdf:RDF>
 </metadata>
 <defs>
  <style type="text/css">*{stroke-linejoin: round; stroke-linecap: butt}</style>
 </defs>
 <g id="figure_1">
  <g id="patch_1">
   <path d="M 0 88.093375 
L 220.656609 88.093375 
L 220.656609 0 
L 0 0 
L 0 88.093375 
z
" style="fill: none; opacity: 0"/>
  </g>
  <g id="axes_1">
   <g id="patch_2">
    <path d="M 16.464609 67.104 
L 219.216609 67.104 
L 219.216609 1.44 
L 16.464609 1.44 
L 16.464609 67.104 
z
" style="fill: none; opacity: 0"/>
   </g>
   <g id="FillBetweenPolyCollection_1">
    <defs>
     <path id="m9737753ed2" d="M 16.464609 -20.989375 
L 16.464609 -21.039841 
L 17.14271 -21.051157 
L 17.82081 -21.064789 
L 18.49891 -21.081157 
L 19.177011 -21.100747 
L 19.855111 -21.124121 
L 20.533211 -21.15192 
L 21.211312 -21.184874 
L 21.889412 -21.223817 
L 22.567512 -21.269688 
L 23.245613 -21.323545 
L 23.923713 -21.386576 
L 24.601813 -21.460102 
L 25.279914 -21.545594 
L 25.958014 -21.644674 
L 26.636114 -21.759126 
L 27.314215 -21.890902 
L 27.992315 -22.042122 
L 28.670415 -22.215082 
L 29.348516 -22.412249 
L 30.026616 -22.636262 
L 30.704716 -22.889919 
L 31.382817 -23.176178 
L 32.060917 -23.498131 
L 32.739017 -23.858995 
L 33.417118 -24.262086 
L 34.095218 -24.71079 
L 34.773318 -25.208533 
L 35.451419 -25.758742 
L 36.129519 -26.364801 
L 36.807619 -27.030006 
L 37.48572 -27.757509 
L 38.16382 -28.550263 
L 38.84192 -29.410961 
L 39.520021 -30.341972 
L 40.198121 -31.345273 
L 40.876221 -32.422384 
L 41.554322 -33.574298 
L 42.232422 -34.801415 
L 42.910522 -36.103475 
L 43.588623 -37.479502 
L 44.266723 -38.927743 
L 44.944823 -40.445623 
L 45.622924 -42.029702 
L 46.301024 -43.675646 
L 46.979124 -45.378206 
L 47.657225 -47.13121 
L 48.335325 -48.927573 
L 49.013425 -50.759314 
L 49.691526 -52.617593 
L 50.369626 -54.492764 
L 51.047726 -56.374438 
L 51.725827 -58.251572 
L 52.403927 -60.112556 
L 53.082027 -61.945334 
L 53.760128 -63.73752 
L 54.438228 -65.476534 
L 55.116328 -67.149748 
L 55.794429 -68.744632 
L 56.472529 -70.248908 
L 57.150629 -71.65071 
L 57.82873 -72.938735 
L 58.50683 -74.102397 
L 59.18493 -75.13197 
L 59.863031 -76.018722 
L 60.541131 -76.75504 
L 61.219231 -77.334541 
L 61.897332 -77.752159 
L 62.575432 -78.004222 
L 63.253532 -78.088505 
L 63.931633 -78.004264 
L 64.609733 -77.752245 
L 65.287833 -77.334673 
L 65.965934 -76.755222 
L 66.644034 -76.018958 
L 67.322134 -75.132268 
L 68.000235 -74.102765 
L 68.678335 -72.939183 
L 69.356435 -71.65125 
L 70.034536 -70.249555 
L 70.712636 -68.745403 
L 71.390736 -67.150665 
L 72.068837 -65.477619 
L 72.746937 -63.738801 
L 73.425037 -61.946843 
L 74.103138 -60.114331 
L 74.781238 -58.253656 
L 75.459338 -56.376881 
L 76.137439 -54.495622 
L 76.815539 -52.620934 
L 77.493639 -50.763213 
L 78.17174 -48.932117 
L 78.84984 -47.136499 
L 79.52794 -45.384353 
L 80.206041 -43.682782 
L 80.884141 -42.037973 
L 81.562241 -40.455198 
L 82.240342 -38.938813 
L 82.918442 -37.492283 
L 83.596542 -36.118213 
L 84.274643 -34.818387 
L 84.952743 -33.593817 
L 85.630843 -32.444802 
L 86.308944 -31.370988 
L 86.987044 -30.371429 
L 87.665144 -29.444661 
L 88.343245 -28.588766 
L 89.021345 -27.801442 
L 89.699445 -27.080069 
L 90.377546 -26.421775 
L 91.055646 -25.823495 
L 91.733746 -25.282031 
L 92.411847 -24.794105 
L 93.089947 -24.356404 
L 93.768048 -23.965631 
L 94.446148 -23.618534 
L 95.124248 -23.311948 
L 95.802349 -23.042817 
L 96.480449 -22.808222 
L 97.158549 -22.605394 
L 97.83665 -22.431737 
L 98.51475 -22.28483 
L 99.19285 -22.162439 
L 99.870951 -22.062519 
L 100.549051 -21.983214 
L 101.227151 -21.922857 
L 101.905252 -21.879967 
L 102.583352 -21.853239 
L 103.261452 -21.841544 
L 103.939553 -21.843914 
L 104.617653 -21.859539 
L 105.295753 -21.887754 
L 105.973854 -21.928033 
L 106.651954 -21.979974 
L 107.330054 -22.043294 
L 108.008155 -22.117817 
L 108.686255 -22.203465 
L 109.364355 -22.300247 
L 110.042456 -22.408253 
L 110.720556 -22.527642 
L 111.398656 -22.658636 
L 112.076757 -22.80151 
L 112.754857 -22.956587 
L 113.432957 -23.124227 
L 114.111058 -23.304822 
L 114.789158 -23.498787 
L 115.467258 -23.706558 
L 116.145359 -23.928578 
L 116.823459 -24.165298 
L 117.501559 -24.417165 
L 118.17966 -24.68462 
L 118.85776 -24.96809 
L 119.53586 -25.267979 
L 120.213961 -25.58467 
L 120.892061 -25.91851 
L 121.570161 -26.269813 
L 122.248262 -26.638845 
L 122.926362 -27.025827 
L 123.604462 -27.430924 
L 124.282563 -27.854243 
L 124.960663 -28.295825 
L 125.638763 -28.755642 
L 126.316864 -29.233591 
L 126.994964 -29.729493 
L 127.673064 -30.243082 
L 128.351165 -30.774009 
L 129.029265 -31.321834 
L 129.707365 -31.886022 
L 130.385466 -32.465946 
L 131.063566 -33.060881 
L 131.741666 -33.670002 
L 132.419767 -34.292385 
L 133.097867 -34.927009 
L 133.775967 -35.572752 
L 134.454068 -36.228396 
L 135.132168 -36.892626 
L 135.810268 -37.564036 
L 136.488369 -38.241131 
L 137.166469 -38.922328 
L 137.844569 -39.605969 
L 138.52267 -40.290317 
L 139.20077 -40.973571 
L 139.87887 -41.653867 
L 140.556971 -42.329289 
L 141.235071 -42.997877 
L 141.913171 -43.657635 
L 142.591272 -44.306541 
L 143.269372 -44.942557 
L 143.947472 -45.563641 
L 144.625573 -46.167754 
L 145.303673 -46.752875 
L 145.981773 -47.317009 
L 146.659874 -47.858201 
L 147.337974 -48.374545 
L 148.016074 -48.864194 
L 148.694175 -49.325375 
L 149.372275 -49.756398 
L 150.050375 -50.155665 
L 150.728476 -50.521679 
L 151.406576 -50.853056 
L 152.084676 -51.148535 
L 152.762777 -51.40698 
L 153.440877 -51.627394 
L 154.118977 -51.80892 
L 154.797078 -51.95085 
L 155.475178 -52.052628 
L 156.153278 -52.113856 
L 156.831379 -52.134292 
L 157.509479 -52.113856 
L 158.187579 -52.052628 
L 158.86568 -51.95085 
L 159.54378 -51.80892 
L 160.22188 -51.627394 
L 160.899981 -51.40698 
L 161.578081 -51.148535 
L 162.256181 -50.853056 
L 162.934282 -50.521679 
L 163.612382 -50.155665 
L 164.290482 -49.756398 
L 164.968583 -49.325375 
L 165.646683 -48.864194 
L 166.324783 -48.374545 
L 167.002884 -47.858201 
L 167.680984 -47.317009 
L 168.359084 -46.752875 
L 169.037185 -46.167754 
L 169.715285 -45.563641 
L 170.393385 -44.942557 
L 171.071486 -44.30654 
L 171.749586 -43.657635 
L 172.427686 -42.997877 
L 173.105787 -42.329289 
L 173.783887 -41.653867 
L 174.461987 -40.973571 
L 175.140088 -40.290317 
L 175.818188 -39.605968 
L 176.496288 -38.922327 
L 177.174389 -38.241129 
L 177.852489 -37.564034 
L 178.530589 -36.892623 
L 179.20869 -36.228391 
L 179.88679 -35.572746 
L 180.56489 -34.927 
L 181.242991 -34.292373 
L 181.921091 -33.669985 
L 182.599191 -33.060859 
L 183.277292 -32.465917 
L 183.955392 -31.885983 
L 184.633492 -31.321781 
L 185.311593 -30.773939 
L 185.989693 -30.242989 
L 186.667793 -29.72937 
L 187.345894 -29.233429 
L 188.023994 -28.755429 
L 188.702094 -28.295546 
L 189.380195 -27.853879 
L 190.058295 -27.430449 
L 190.736395 -27.02521 
L 191.414496 -26.638047 
L 192.092596 -26.268782 
L 192.770696 -25.917184 
L 193.448797 -25.582967 
L 194.126897 -25.265801 
L 194.804997 -24.96531 
L 195.483098 -24.681084 
L 196.161198 -24.41268 
L 196.839298 -24.159626 
L 197.517399 -23.921426 
L 198.195499 -23.697566 
L 198.873599 -23.487516 
L 199.5517 -23.290734 
L 200.2298 -23.106672 
L 200.9079 -22.934776 
L 201.586001 -22.77449 
L 202.264101 -22.625262 
L 202.942201 -22.486542 
L 203.620302 -22.357787 
L 204.298402 -22.238465 
L 204.976502 -22.128051 
L 205.654603 -22.026036 
L 206.332703 -21.931922 
L 207.010803 -21.845228 
L 207.688904 -21.765488 
L 208.367004 -21.692255 
L 209.045104 -21.625097 
L 209.723205 -21.563601 
L 210.401305 -21.507373 
L 211.079405 -21.456038 
L 211.757506 -21.409239 
L 212.435606 -21.366638 
L 213.113706 -21.327915 
L 213.791807 -21.292767 
L 214.469907 -21.260912 
L 215.148007 -21.232083 
L 215.826108 -21.20603 
L 216.504208 -21.18252 
L 217.182308 -21.161335 
L 217.860409 -21.142273 
L 218.538509 -21.125146 
L 219.216609 -21.109779 
L 219.216609 -20.989375 
L 219.216609 -20.989375 
L 218.538509 -20.989375 
L 217.860409 -20.989375 
L 217.182308 -20.989375 
L 216.504208 -20.989375 
L 215.826108 -20.989375 
L 215.148007 -20.989375 
L 214.469907 -20.989375 
L 213.791807 -20.989375 
L 213.113706 -20.989375 
L 212.435606 -20.989375 
L 211.757506 -20.989375 
L 211.079405 -20.989375 
L 210.401305 -20.989375 
L 209.723205 -20.989375 
L 209.045104 -20.989375 
L 208.367004 -20.989375 
L 207.688904 -20.989375 
L 207.010803 -20.989375 
L 206.332703 -20.989375 
L 205.654603 -20.989375 
L 204.976502 -20.989375 
L 204.298402 -20.989375 
L 203.620302 -20.989375 
L 202.942201 -20.989375 
L 202.264101 -20.989375 
L 201.586001 -20.989375 
L 200.9079 -20.989375 
L 200.2298 -20.989375 
L 199.5517 -20.989375 
L 198.873599 -20.989375 
L 198.195499 -20.989375 
L 197.517399 -20.989375 
L 196.839298 -20.989375 
L 196.161198 -20.989375 
L 195.483098 -20.989375 
L 194.804997 -20.989375 
L 194.126897 -20.989375 
L 193.448797 -20.989375 
L 192.770696 -20.989375 
L 192.092596 -20.989375 
L 191.414496 -20.989375 
L 190.736395 -20.989375 
L 190.058295 -20.989375 
L 189.380195 -20.989375 
L 188.702094 -20.989375 
L 188.023994 -20.989375 
L 187.345894 -20.989375 
L 186.667793 -20.989375 
L 185.989693 -20.989375 
L 185.311593 -20.989375 
L 184.633492 -20.989375 
L 183.955392 -20.989375 
L 183.277292 -20.989375 
L 182.599191 -20.989375 
L 181.921091 -20.989375 
L 181.242991 -20.989375 
L 180.56489 -20.989375 
L 179.88679 -20.989375 
L 179.20869 -20.989375 
L 178.530589 -20.989375 
L 177.852489 -20.989375 
L 177.174389 -20.989375 
L 176.496288 -20.989375 
L 175.818188 -20.989375 
L 175.140088 -20.989375 
L 174.461987 -20.989375 
L 173.783887 -20.989375 
L 173.105787 -20.989375 
L 172.427686 -20.989375 
L 171.749586 -20.989375 
L 171.071486 -20.989375 
L 170.393385 -20.989375 
L 169.715285 -20.989375 
L 169.037185 -20.989375 
L 168.359084 -20.989375 
L 167.680984 -20.989375 
L 167.002884 -20.989375 
L 166.324783 -20.989375 
L 165.646683 -20.989375 
L 164.968583 -20.989375 
L 164.290482 -20.989375 
L 163.612382 -20.989375 
L 162.934282 -20.989375 
L 162.256181 -20.989375 
L 161.578081 -20.989375 
L 160.899981 -20.989375 
L 160.22188 -20.989375 
L 159.54378 -20.989375 
L 158.86568 -20.989375 
L 158.187579 -20.989375 
L 157.509479 -20.989375 
L 156.831379 -20.989375 
L 156.153278 -20.989375 
L 155.475178 -20.989375 
L 154.797078 -20.989375 
L 154.118977 -20.989375 
L 153.440877 -20.989375 
L 152.762777 -20.989375 
L 152.084676 -20.989375 
L 151.406576 -20.989375 
L 150.728476 -20.989375 
L 150.050375 -20.989375 
L 149.372275 -20.989375 
L 148.694175 -20.989375 
L 148.016074 -20.989375 
L 147.337974 -20.989375 
L 146.659874 -20.989375 
L 145.981773 -20.989375 
L 145.303673 -20.989375 
L 144.625573 -20.989375 
L 143.947472 -20.989375 
L 143.269372 -20.989375 
L 142.591272 -20.989375 
L 141.913171 -20.989375 
L 141.235071 -20.989375 
L 140.556971 -20.989375 
L 139.87887 -20.989375 
L 139.20077 -20.989375 
L 138.52267 -20.989375 
L 137.844569 -20.989375 
L 137.166469 -20.989375 
L 136.488369 -20.989375 
L 135.810268 -20.989375 
L 135.132168 -20.989375 
L 134.454068 -20.989375 
L 133.775967 -20.989375 
L 133.097867 -20.989375 
L 132.419767 -20.989375 
L 131.741666 -20.989375 
L 131.063566 -20.989375 
L 130.385466 -20.989375 
L 129.707365 -20.989375 
L 129.029265 -20.989375 
L 128.351165 -20.989375 
L 127.673064 -20.989375 
L 126.994964 -20.989375 
L 126.316864 -20.989375 
L 125.638763 -20.989375 
L 124.960663 -20.989375 
L 124.282563 -20.989375 
L 123.604462 -20.989375 
L 122.926362 -20.989375 
L 122.248262 -20.989375 
L 121.570161 -20.989375 
L 120.892061 -20.989375 
L 120.213961 -20.989375 
L 119.53586 -20.989375 
L 118.85776 -20.989375 
L 118.17966 -20.989375 
L 117.501559 -20.989375 
L 116.823459 -20.989375 
L 116.145359 -20.989375 
L 115.467258 -20.989375 
L 114.789158 -20.989375 
L 114.111058 -20.989375 
L 113.432957 -20.989375 
L 112.754857 -20.989375 
L 112.076757 -20.989375 
L 111.398656 -20.989375 
L 110.720556 -20.989375 
L 110.042456 -20.989375 
L 109.364355 -20.989375 
L 108.686255 -20.989375 
L 108.008155 -20.989375 
L 107.330054 -20.989375 
L 106.651954 -20.989375 
L 105.973854 -20.989375 
L 105.295753 -20.989375 
L 104.617653 -20.989375 
L 103.939553 -20.989375 
L 103.261452 -20.989375 
L 102.583352 -20.989375 
L 101.905252 -20.989375 
L 101.227151 -20.989375 
L 100.549051 -20.989375 
L 99.870951 -20.989375 
L 99.19285 -20.989375 
L 98.51475 -20.989375 
L 97.83665 -20.989375 
L 97.158549 -20.989375 
L 96.480449 -20.989375 
L 95.802349 -20.989375 
L 95.124248 -20.989375 
L 94.446148 -20.989375 
L 93.768048 -20.989375 
L 93.089947 -20.989375 
L 92.411847 -20.989375 
L 91.733746 -20.989375 
L 91.055646 -20.989375 
L 90.377546 -20.989375 
L 89.699445 -20.989375 
L 89.021345 -20.989375 
L 88.343245 -20.989375 
L 87.665144 -20.989375 
L 86.987044 -20.989375 
L 86.308944 -20.989375 
L 85.630843 -20.989375 
L 84.952743 -20.989375 
L 84.274643 -20.989375 
L 83.596542 -20.989375 
L 82.918442 -20.989375 
L 82.240342 -20.989375 
L 81.562241 -20.989375 
L 80.884141 -20.989375 
L 80.206041 -20.989375 
L 79.52794 -20.989375 
L 78.84984 -20.989375 
L 78.17174 -20.989375 
L 77.493639 -20.989375 
L 76.815539 -20.989375 
L 76.137439 -20.989375 
L 75.459338 -20.989375 
L 74.781238 -20.989375 
L 74.103138 -20.989375 
L 73.425037 -20.989375 
L 72.746937 -20.989375 
L 72.068837 -20.989375 
L 71.390736 -20.989375 
L 70.712636 -20.989375 
L 70.034536 -20.989375 
L 69.356435 -20.989375 
L 68.678335 -20.989375 
L 68.000235 -20.989375 
L 67.322134 -20.989375 
L 66.644034 -20.989375 
L 65.965934 -20.989375 
L 65.287833 -20.989375 
L 64.609733 -20.989375 
L 63.931633 -20.989375 
L 63.253532 -20.989375 
L 62.575432 -20.989375 
L 61.897332 -20.989375 
L 61.219231 -20.989375 
L 60.541131 -20.989375 
L 59.863031 -20.989375 
L 59.18493 -20.989375 
L 58.50683 -20.989375 
L 57.82873 -20.989375 
L 57.150629 -20.989375 
L 56.472529 -20.989375 
L 55.794429 -20.989375 
L 55.116328 -20.989375 
L 54.438228 -20.989375 
L 53.760128 -20.989375 
L 53.082027 -20.989375 
L 52.403927 -20.989375 
L 51.725827 -20.989375 
L 51.047726 -20.989375 
L 50.369626 -20.989375 
L 49.691526 -20.989375 
L 49.013425 -20.989375 
L 48.335325 -20.989375 
L 47.657225 -20.989375 
L 46.979124 -20.989375 
L 46.301024 -20.989375 
L 45.622924 -20.989375 
L 44.944823 -20.989375 
L 44.266723 -20.989375 
L 43.588623 -20.989375 
L 42.910522 -20.989375 
L 42.232422 -20.989375 
L 41.554322 -20.989375 
L 40.876221 -20.989375 
L 40.198121 -20.989375 
L 39.520021 -20.989375 
L 38.84192 -20.989375 
L 38.16382 -20.989375 
L 37.48572 -20.989375 
L 36.807619 -20.989375 
L 36.129519 -20.989375 
L 35.451419 -20.989375 
L 34.773318 -20.989375 
L 34.095218 -20.989375 
L 33.417118 -20.989375 
L 32.739017 -20.989375 
L 32.060917 -20.989375 
L 31.382817 -20.989375 
L 30.704716 -20.989375 
L 30.026616 -20.989375 
L 29.348516 -20.989375 
L 28.670415 -20.989375 
L 27.992315 -20.989375 
L 27.314215 -20.989375 
L 26.636114 -20.989375 
L 25.958014 -20.989375 
L 25.279914 -20.989375 
L 24.601813 -20.989375 
L 23.923713 -20.989375 
L 23.245613 -20.989375 
L 22.567512 -20.989375 
L 21.889412 -20.989375 
L 21.211312 -20.989375 
L 20.533211 -20.989375 
L 19.855111 -20.989375 
L 19.177011 -20.989375 
L 18.49891 -20.989375 
L 17.82081 -20.989375 
L 17.14271 -20.989375 
L 16.464609 -20.989375 
z
" style="stroke: #3b82f6; stroke-opacity: 0.15"/>
    </defs>
    <g clip-path="url(#p8e9c98e790)">
     <use xlink:href="#m9737753ed2" x="0" y="88.093375" style="fill: #3b82f6; fill-opacity: 0.15; stroke: #3b82f6; stroke-opacity: 0.15"/>
    </g>
   </g>
   <g id="matplotlib.axis_1">
    <g id="xtick_1">
     <g id="line2d_1">
      <defs>
       <path id="m1eac56dbc6" d="M 0 0 
L 0 3 
" style="stroke: #94a3b8; stroke-width: 0.5"/>
      </defs>
      <g>
       <use xlink:href="#m1eac56dbc6" x="32.060917" y="67.104" style="fill: #94a3b8; stroke: #94a3b8; stroke-width: 0.5"/>
      </g>
     </g>
     <g id="text_1">
      <!-- 10 -->
      <g style="fill: #94a3b8" transform="translate(27.607167 77.422906) scale(0.07 -0.07)">
       <defs>
        <path id="DejaVuSans-31" d="M 794 531 
L 1825 531 
L 1825 4091 
L 703 3866 
L 703 4441 
L 1819 4666 
L 2450 4666 
L 2450 531 
L 3481 531 
L 3481 0 
L 794 0 
L 794 531 
z
" transform="scale(0.015625)"/>
        <path id="DejaVuSans-30" d="M 2034 4250 
Q 1547 4250 1301 3770 
Q 1056 3291 1056 2328 
Q 1056 1369 1301 889 
Q 1547 409 2034 409 
Q 2525 409 2770 889 
Q 3016 1369 3016 2328 
Q 3016 3291 2770 3770 
Q 2525 4250 2034 4250 
z
M 2034 4750 
Q 2819 4750 3233 4129 
Q 3647 3509 3647 2328 
Q 3647 1150 3233 529 
Q 2819 -91 2034 -91 
Q 1250 -91 836 529 
Q 422 1150 422 2328 
Q 422 3509 836 4129 
Q 1250 4750 2034 4750 
z
" transform="scale(0.015625)"/>
       </defs>
       <use xlink:href="#DejaVuSans-31"/>
       <use xlink:href="#DejaVuSans-30" transform="translate(63.623047 0)"/>
      </g>
     </g>
    </g>
    <g id="xtick_2">
     <g id="line2d_2">
      <g>
       <use xlink:href="#m1eac56dbc6" x="63.253532" y="67.104" style="fill: #94a3b8; stroke: #94a3b8; stroke-width: 0.5"/>
      </g>
     </g>
     <g id="text_2">
      <!-- 20 -->
      <g style="fill: #94a3b8" transform="translate(58.799782 77.422906) scale(0.07 -0.07)">
       <defs>
        <path id="DejaVuSans-32" d="M 1228 531 
L 3431 531 
L 3431 0 
L 469 0 
L 469 531 
Q 828 903 1448 1529 
Q 2069 2156 2228 2338 
Q 2531 2678 2651 2914 
Q 2772 3150 2772 3378 
Q 2772 3750 2511 3984 
Q 2250 4219 1831 4219 
Q 1534 4219 1204 4116 
Q 875 4013 500 3803 
L 500 4441 
Q 881 4594 1212 4672 
Q 1544 4750 1819 4750 
Q 2544 4750 2975 4387 
Q 3406 4025 3406 3419 
Q 3406 3131 3298 2873 
Q 3191 2616 2906 2266 
Q 2828 2175 2409 1742 
Q 1991 1309 1228 531 
z
" transform="scale(0.015625)"/>
       </defs>
       <use xlink:href="#DejaVuSans-32"/>
       <use xlink:href="#DejaVuSans-30" transform="translate(63.623047 0)"/>
      </g>
     </g>
    </g>
    <g id="xtick_3">
     <g id="line2d_3">
      <g>
       <use xlink:href="#m1eac56dbc6" x="110.042456" y="67.104" style="fill: #94a3b8; stroke: #94a3b8; stroke-width: 0.5"/>
      </g>
     </g>
     <g id="text_3">
      <!-- 35 -->
      <g style="fill: #94a3b8" transform="translate(105.588706 77.422906) scale(0.07 -0.07)">
       <defs>
        <path id="DejaVuSans-33" d="M 2597 2516 
Q 3050 2419 3304 2112 
Q 3559 1806 3559 1356 
Q 3559 666 3084 287 
Q 2609 -91 1734 -91 
Q 1441 -91 1130 -33 
Q 819 25 488 141 
L 488 750 
Q 750 597 1062 519 
Q 1375 441 1716 441 
Q 2309 441 2620 675 
Q 2931 909 2931 1356 
Q 2931 1769 2642 2001 
Q 2353 2234 1838 2234 
L 1294 2234 
L 1294 2753 
L 1863 2753 
Q 2328 2753 2575 2939 
Q 2822 3125 2822 3475 
Q 2822 3834 2567 4026 
Q 2313 4219 1838 4219 
Q 1578 4219 1281 4162 
Q 984 4106 628 3988 
L 628 4550 
Q 988 4650 1302 4700 
Q 1616 4750 1894 4750 
Q 2613 4750 3031 4423 
Q 3450 4097 3450 3541 
Q 3450 3153 3228 2886 
Q 3006 2619 2597 2516 
z
" transform="scale(0.015625)"/>
        <path id="DejaVuSans-35" d="M 691 4666 
L 3169 4666 
L 3169 4134 
L 1269 4134 
L 1269 2991 
Q 1406 3038 1543 3061 
Q 1681 3084 1819 3084 
Q 2600 3084 3056 2656 
Q 3513 2228 3513 1497 
Q 3513 744 3044 326 
Q 2575 -91 1722 -91 
Q 1428 -91 1123 -41 
Q 819 9 494 109 
L 494 744 
Q 775 591 1075 516 
Q 1375 441 1709 441 
Q 2250 441 2565 725 
Q 2881 1009 2881 1497 
Q 2881 1984 2565 2268 
Q 2250 2553 1709 2553 
Q 1456 2553 1204 2497 
Q 953 2441 691 2322 
L 691 4666 
z
" transform="scale(0.015625)"/>
       </defs>
       <use xlink:href="#DejaVuSans-33"/>
       <use xlink:href="#DejaVuSans-35" transform="translate(63.623047 0)"/>
      </g>
     </g>
    </g>
    <g id="xtick_4">
     <g id="line2d_4">
      <g>
       <use xlink:href="#m1eac56dbc6" x="156.831379" y="67.104" style="fill: #94a3b8; stroke: #94a3b8; stroke-width: 0.5"/>
      </g>
     </g>
     <g id="text_4">
      <!-- 50 -->
      <g style="fill: #94a3b8" transform="translate(152.377629 77.422906) scale(0.07 -0.07)">
       <use xlink:href="#DejaVuSans-35"/>
       <use xlink:href="#DejaVuSans-30" transform="translate(63.623047 0)"/>
      </g>
     </g>
    </g>
    <g id="xtick_5">
     <g id="line2d_5">
      <g>
       <use xlink:href="#m1eac56dbc6" x="203.620302" y="67.104" style="fill: #94a3b8; stroke: #94a3b8; stroke-width: 0.5"/>
      </g>
     </g>
     <g id="text_5">
      <!-- 65 -->
      <g style="fill: #94a3b8" transform="translate(199.166552 77.422906) scale(0.07 -0.07)">
       <defs>
        <path id="DejaVuSans-36" d="M 2113 2584 
Q 1688 2584 1439 2293 
Q 1191 2003 1191 1497 
Q 1191 994 1439 701 
Q 1688 409 2113 409 
Q 2538 409 2786 701 
Q 3034 994 3034 1497 
Q 3034 2003 2786 2293 
Q 2538 2584 2113 2584 
z
M 3366 4563 
L 3366 3988 
Q 3128 4100 2886 4159 
Q 2644 4219 2406 4219 
Q 1781 4219 1451 3797 
Q 1122 3375 1075 2522 
Q 1259 2794 1537 2939 
Q 1816 3084 2150 3084 
Q 2853 3084 3261 2657 
Q 3669 2231 3669 1497 
Q 3669 778 3244 343 
Q 2819 -91 2113 -91 
Q 1303 -91 875 529 
Q 447 1150 447 2328 
Q 447 3434 972 4092 
Q 1497 4750 2381 4750 
Q 2619 4750 2861 4703 
Q 3103 4656 3366 4563 
z
" transform="scale(0.015625)"/>
       </defs>
       <use xlink:href="#DejaVuSans-36"/>
       <use xlink:href="#DejaVuSans-35" transform="translate(63.623047 0)"/>
      </g>
     </g>
    </g>
    <g id="text_6">
     <!-- min -->
     <g style="fill: #94a3b8" transform="translate(111.240922 85.197594) scale(0.07 -0.07)">
      <defs>
       <path id="DejaVuSans-6d" d="M 3328 2828 
Q 3544 3216 3844 3400 
Q 4144 3584 4550 3584 
Q 5097 3584 5394 3201 
Q 5691 2819 5691 2113 
L 5691 0 
L 5113 0 
L 5113 2094 
Q 5113 2597 4934 2840 
Q 4756 3084 4391 3084 
Q 3944 3084 3684 2787 
Q 3425 2491 3425 1978 
L 3425 0 
L 2847 0 
L 2847 2094 
Q 2847 2600 2669 2842 
Q 2491 3084 2119 3084 
Q 1678 3084 1418 2786 
Q 1159 2488 1159 1978 
L 1159 0 
L 581 0 
L 581 3500 
L 1159 3500 
L 1159 2956 
Q 1356 3278 1631 3431 
Q 1906 3584 2284 3584 
Q 2666 3584 2933 3390 
Q 3200 3197 3328 2828 
z
" transform="scale(0.015625)"/>
       <path id="DejaVuSans-69" d="M 603 3500 
L 1178 3500 
L 1178 0 
L 603 0 
L 603 3500 
z
M 603 4863 
L 1178 4863 
L 1178 4134 
L 603 4134 
L 603 4863 
z
" transform="scale(0.015625)"/>
       <path id="DejaVuSans-6e" d="M 3513 2113 
L 3513 0 
L 2938 0 
L 2938 2094 
Q 2938 2591 2744 2837 
Q 2550 3084 2163 3084 
Q 1697 3084 1428 2787 
Q 1159 2491 1159 1978 
L 1159 0 
L 581 0 
L 581 3500 
L 1159 3500 
L 1159 2956 
Q 1366 3272 1645 3428 
Q 1925 3584 2291 3584 
Q 2894 3584 3203 3211 
Q 3513 2838 3513 2113 
z
" transform="scale(0.015625)"/>
      </defs>
      <use xlink:href="#DejaVuSans-6d"/>
      <use xlink:href="#DejaVuSans-69" transform="translate(97.412109 0)"/>
      <use xlink:href="#DejaVuSans-6e" transform="translate(125.195312 0)"/>
     </g>
    </g>
   </g>
   <g id="matplotlib.axis_2">
    <g id="text_7">
     <!-- p(y) -->
     <g style="fill: #94a3b8" transform="translate(1.44 32.816219) scale(0.07 -0.07)">
      <defs>
       <path id="DejaVuSans-70" d="M 1159 525 
L 1159 -1331 
L 581 -1331 
L 581 3500 
L 1159 3500 
L 1159 2969 
Q 1341 3281 1617 3432 
Q 1894 3584 2278 3584 
Q 2916 3584 3314 3078 
Q 3713 2572 3713 1747 
Q 3713 922 3314 415 
Q 2916 -91 2278 -91 
Q 1894 -91 1617 61 
Q 1341 213 1159 525 
z
M 3116 1747 
Q 3116 2381 2855 2742 
Q 2594 3103 2138 3103 
Q 1681 3103 1420 2742 
Q 1159 2381 1159 1747 
Q 1159 1113 1420 752 
Q 1681 391 2138 391 
Q 2594 391 2855 752 
Q 3116 1113 3116 1747 
z
" transform="scale(0.015625)"/>
       <path id="DejaVuSans-28" d="M 1984 4856 
Q 1566 4138 1362 3434 
Q 1159 2731 1159 2009 
Q 1159 1288 1364 580 
Q 1569 -128 1984 -844 
L 1484 -844 
Q 1016 -109 783 600 
Q 550 1309 550 2009 
Q 550 2706 781 3412 
Q 1013 4119 1484 4856 
L 1984 4856 
z
" transform="scale(0.015625)"/>
       <path id="DejaVuSans-79" d="M 2059 -325 
Q 1816 -950 1584 -1140 
Q 1353 -1331 966 -1331 
L 506 -1331 
L 506 -850 
L 844 -850 
Q 1081 -850 1212 -737 
Q 1344 -625 1503 -206 
L 1606 56 
L 191 3500 
L 800 3500 
L 1894 763 
L 2988 3500 
L 3597 3500 
L 2059 -325 
z
" transform="scale(0.015625)"/>
       <path id="DejaVuSans-29" d="M 513 4856 
L 1013 4856 
Q 1481 4119 1714 3412 
Q 1947 2706 1947 2009 
Q 1947 1309 1714 600 
Q 1481 -109 1013 -844 
L 513 -844 
Q 928 -128 1133 580 
Q 1338 1288 1338 2009 
Q 1338 2731 1133 3434 
Q 928 4138 513 4856 
z
" transform="scale(0.015625)"/>
      </defs>
      <use xlink:href="#DejaVuSans-70"/>
      <use xlink:href="#DejaVuSans-28" transform="translate(63.476562 0)"/>
      <use xlink:href="#DejaVuSans-79" transform="translate(102.490234 0)"/>
      <use xlink:href="#DejaVuSans-29" transform="translate(161.669922 0)"/>
     </g>
    </g>
   </g>
   <g id="line2d_6">
    <path d="M 16.464609 67.053534 
L 21.889412 66.869558 
L 25.279914 66.547781 
L 27.992315 66.051253 
L 30.026616 65.457113 
L 32.060917 64.595244 
L 33.417118 63.831289 
L 34.773318 62.884842 
L 36.129519 61.728574 
L 37.48572 60.335866 
L 38.84192 58.682414 
L 40.198121 56.748102 
L 41.554322 54.519077 
L 43.588623 50.613873 
L 45.622924 46.063673 
L 47.657225 40.962165 
L 51.047726 31.718937 
L 54.438228 22.616841 
L 56.472529 17.844467 
L 57.82873 15.15464 
L 59.18493 12.961405 
L 60.541131 11.338335 
L 61.219231 10.758834 
L 61.897332 10.341216 
L 62.575432 10.089153 
L 63.253532 10.00487 
L 63.931633 10.089111 
L 64.609733 10.34113 
L 65.287833 10.758702 
L 65.965934 11.338153 
L 67.322134 12.961107 
L 68.678335 15.154192 
L 70.034536 17.84382 
L 72.068837 22.615756 
L 74.781238 29.839719 
L 79.52794 42.709022 
L 81.562241 47.638177 
L 83.596542 51.975162 
L 85.630843 55.648573 
L 86.987044 57.721946 
L 88.343245 59.504609 
L 89.699445 61.013306 
L 91.055646 62.26988 
L 92.411847 63.29927 
L 93.768048 64.127744 
L 95.802349 65.050558 
L 97.83665 65.661638 
L 99.870951 66.030856 
L 102.583352 66.240136 
L 105.295753 66.205621 
L 108.008155 65.975558 
L 110.720556 65.565733 
L 113.432957 64.969148 
L 116.145359 64.164797 
L 118.85776 63.125285 
L 121.570161 61.823562 
L 124.282563 60.239132 
L 126.994964 58.363882 
L 129.707365 56.207353 
L 133.097867 53.166366 
L 137.166469 49.171047 
L 143.269372 43.150818 
L 145.981773 40.776366 
L 148.016074 39.229181 
L 150.050375 37.93771 
L 152.084676 36.94484 
L 154.118977 36.284455 
L 155.475178 36.040747 
L 156.831379 35.959083 
L 158.187579 36.040747 
L 159.54378 36.284455 
L 160.899981 36.686395 
L 162.934282 37.571696 
L 164.968583 38.768 
L 167.002884 40.235174 
L 169.715285 42.529734 
L 173.105787 45.764086 
L 181.921091 54.42339 
L 184.633492 56.771594 
L 187.345894 58.859946 
L 190.058295 60.662926 
L 192.770696 62.176191 
L 195.483098 63.412291 
L 198.195499 64.395809 
L 200.9079 65.158599 
L 204.298402 65.85491 
L 207.688904 66.327887 
L 211.757506 66.684136 
L 217.182308 66.93204 
L 219.216609 66.983596 
L 219.216609 66.983596 
" clip-path="url(#p8e9c98e790)" style="fill: none; stroke: #3b82f6; stroke-width: 1.5; stroke-linecap: square"/>
   </g>
   <g id="line2d_7">
    <path d="M 105.363563 67.104 
L 105.363563 1.44 
" clip-path="url(#p8e9c98e790)" style="fill: none; stroke-dasharray: 3.7,1.6; stroke-dashoffset: 0; stroke: #ef4444; stroke-opacity: 0.7"/>
   </g>
   <g id="line2d_8">
    <path d="M 63.253532 67.104 
L 63.253532 1.44 
" clip-path="url(#p8e9c98e790)" style="fill: none; stroke-dasharray: 1,1.65; stroke-dashoffset: 0; stroke: #22c55e; stroke-opacity: 0.7"/>
   </g>
   <g id="line2d_9">
    <path d="M 156.831379 67.104 
L 156.831379 1.44 
" clip-path="url(#p8e9c98e790)" style="fill: none; stroke-dasharray: 1,1.65; stroke-dashoffset: 0; stroke: #22c55e; stroke-opacity: 0.7"/>
   </g>
   <g id="patch_3">
    <path d="M 16.464609 67.104 
L 16.464609 1.44 
" style="fill: none; stroke: #94a3b8; stroke-width: 0.5; stroke-linejoin: miter; stroke-linecap: square"/>
   </g>
   <g id="patch_4">
    <path d="M 16.464609 67.104 
L 219.216609 67.104 
" style="fill: none; stroke: #94a3b8; stroke-width: 0.5; stroke-linejoin: miter; stroke-linecap: square"/>
   </g>
  </g>
 </g>
 <defs>
  <clipPath id="p8e9c98e790">
   <rect x="16.464609" y="1.44" width="202.752" height="65.664"/>
  </clipPath>
 </defs>
</svg>
