<?xml version="1.0" encoding="utf-8" standalone="no"?>
<!DOCTYPE svg PUBLIC "-//W3C//DTD SVG 1.1//EN"
  "http://www.w3.org/Graphics/SVG/1.1/DTD/svg11.dtd">
<svg xmlns:xlink="http://www.w3.org/1999/xlink" width="220.656609pt" height="88.093375pt" viewBox="0 0 220.656609 88.093375" xmlns="http://www.w3.org/2000/svg" version="1.1">
 <metadata>
  <rdf:RDF xmlns:dc="http://purl.org/dc/elements/1.1/" xmlns:cc="http://creativecommons.org/ns#" xmlns:rdf="http://www.w3.org/1999/02/22-rdf-syntax-ns#">
   <cc:Work>
    <dc:type rdf:resource="http://purl.org/dc/dcmitype/StillImage"/>
    <dc:date>2026-03-15T16:59:27.360273</dc:date>
    <dc:format>image/svg+xml</dc:format>
    <dc:creator>
     <cc:Agent>
      <dc:title>Matplotlib v3.10.7, https://matplotlib.org/</dc:title>
     </cc:Agent>
    </dc:creator>
   </cc:Work>
  </rdf:RDF>
 </metadata>
 <defs>
  <style type="text/css">*{stroke-linejoin: round; stroke-linecap: butt}</style>
 </defs>
 <g id="figure_1">
  <g id="patch_1">
   <path d="M 0 88.093375 
L 220.656609 88.093375 
L 220.656609 0 
L 0 0 
L 0 88.093375 
z
" style="fill: none; opacity: 0"/>
  </g>
  <g id="axes_1">
   <g id="patch_2">
    <path d="M 16.464609 67.104 
L 219.216609 67.104 
L 219.216609 1.44 
L 16.464609 1.44 
L 16.464609 67.104 
z
" style="fill: none; opacity: 0"/>
   </g>
   <g id="FillBetweenPolyCollection_1">
    <defs>
     <path id="m3c191ab05b" d="M 16.464609 -20.989375 
L 16.464609 -23.575325 
L 17.483464 -24.066421 
L 18.502318 -24.617772 
L 19.521172 -25.231639 
L 20.540026 -25.909762 
L 21.558881 -26.653325 
L 22.577735 -27.462931 
L 23.596589 -28.33859 
L 24.615444 -29.279712 
L 25.634298 -30.285116 
L 26.653152 -31.353044 
L 27.672006 -32.481187 
L 28.690861 -33.666712 
L 29.709715 -34.906304 
L 30.728569 -36.196203 
L 31.747423 -37.532257 
L 32.766278 -38.909963 
L 33.785132 -40.324526 
L 34.803986 -41.770908 
L 35.822841 -43.243882 
L 36.841695 -44.73808 
L 37.860549 -46.248049 
L 38.879403 -47.768298 
L 39.898258 -49.293342 
L 40.917112 -50.817748 
L 41.935966 -52.336174 
L 42.95482 -53.843407 
L 43.973675 -55.334395 
L 44.992529 -56.804278 
L 46.011383 -58.248414 
L 47.030238 -59.662399 
L 48.049092 -61.042089 
L 49.067946 -62.38361 
L 50.0868 -63.683379 
L 51.105655 -64.938101 
L 52.124509 -66.144785 
L 53.143363 -67.300739 
L 54.162217 -68.403577 
L 55.181072 -69.451211 
L 56.199926 -70.441851 
L 57.21878 -71.373997 
L 58.237635 -72.246433 
L 59.256489 -73.058217 
L 60.275343 -73.808668 
L 61.294197 -74.49736 
L 62.313052 -75.124107 
L 63.331906 -75.688949 
L 64.35076 -76.192141 
L 65.369614 -76.634138 
L 66.388469 -77.01558 
L 67.407323 -77.337283 
L 68.426177 -77.600217 
L 69.445031 -77.805501 
L 70.463886 -77.954383 
L 71.48274 -78.048227 
L 72.501594 -78.088505 
L 73.520449 -78.076781 
L 74.539303 -78.014697 
L 75.558157 -77.903965 
L 76.577011 -77.746355 
L 77.595866 -77.543684 
L 78.61472 -77.297805 
L 79.633574 -77.010601 
L 80.652428 -76.683972 
L 81.671283 -76.319829 
L 82.690137 -75.920089 
L 83.708991 -75.486663 
L 84.727846 -75.021451 
L 85.7467 -74.526338 
L 86.765554 -74.003189 
L 87.784408 -73.453841 
L 88.803263 -72.880099 
L 89.822117 -72.283735 
L 90.840971 -71.666482 
L 91.859825 -71.030034 
L 92.87868 -70.376037 
L 93.897534 -69.706094 
L 94.916388 -69.021759 
L 95.935243 -68.324536 
L 96.954097 -67.615878 
L 97.972951 -66.897186 
L 98.991805 -66.16981 
L 100.01066 -65.435045 
L 101.029514 -64.694134 
L 102.048368 -63.948266 
L 103.067222 -63.198578 
L 104.086077 -62.446151 
L 105.104931 -61.692019 
L 106.123785 -60.93716 
L 107.14264 -60.182504 
L 108.161494 -59.428929 
L 109.180348 -58.677265 
L 110.199202 -57.928295 
L 111.218057 -57.182755 
L 112.236911 -56.441334 
L 113.255765 -55.704679 
L 114.274619 -54.973392 
L 115.293474 -54.248036 
L 116.312328 -53.529131 
L 117.331182 -52.817159 
L 118.350037 -52.112567 
L 119.368891 -51.415763 
L 120.387745 -50.727122 
L 121.406599 -50.046985 
L 122.425454 -49.375662 
L 123.444308 -48.713432 
L 124.463162 -48.060545 
L 125.482016 -47.417223 
L 126.500871 -46.783662 
L 127.519725 -46.160033 
L 128.538579 -45.546482 
L 129.557433 -44.943135 
L 130.576288 -44.350094 
L 131.595142 -43.767441 
L 132.613996 -43.19524 
L 133.632851 -42.633536 
L 134.651705 -42.082358 
L 135.670559 -41.541717 
L 136.689413 -41.011611 
L 137.708268 -40.492025 
L 138.727122 -39.982927 
L 139.745976 -39.484276 
L 140.76483 -38.996019 
L 141.783685 -38.518093 
L 142.802539 -38.050422 
L 143.821393 -37.592926 
L 144.840248 -37.145512 
L 145.859102 -36.708083 
L 146.877956 -36.280532 
L 147.89681 -35.862749 
L 148.915665 -35.454615 
L 149.934519 -35.056008 
L 150.953373 -34.666799 
L 151.972227 -34.286858 
L 152.991082 -33.916049 
L 154.009936 -33.554232 
L 155.02879 -33.201267 
L 156.047645 -32.85701 
L 157.066499 -32.521314 
L 158.085353 -32.194031 
L 159.104207 -31.875013 
L 160.123062 -31.56411 
L 161.141916 -31.261169 
L 162.16077 -30.966041 
L 163.179624 -30.678572 
L 164.198479 -30.398612 
L 165.217333 -30.126008 
L 166.236187 -29.86061 
L 167.255042 -29.602267 
L 168.273896 -29.35083 
L 169.29275 -29.106149 
L 170.311604 -28.868077 
L 171.330459 -28.636468 
L 172.349313 -28.411176 
L 173.368167 -28.192058 
L 174.387021 -27.978972 
L 175.405876 -27.771778 
L 176.42473 -27.570337 
L 177.443584 -27.374511 
L 178.462439 -27.184168 
L 179.481293 -26.999172 
L 180.500147 -26.819395 
L 181.519001 -26.644707 
L 182.537856 -26.47498 
L 183.55671 -26.310092 
L 184.575564 -26.149919 
L 185.594418 -25.994341 
L 186.613273 -25.843241 
L 187.632127 -25.696502 
L 188.650981 -25.554011 
L 189.669836 -25.415656 
L 190.68869 -25.281329 
L 191.707544 -25.150923 
L 192.726398 -25.024333 
L 193.745253 -24.901457 
L 194.764107 -24.782194 
L 195.782961 -24.666447 
L 196.801815 -24.554119 
L 197.82067 -24.445118 
L 198.839524 -24.33935 
L 199.858378 -24.236728 
L 200.877232 -24.137164 
L 201.896087 -24.040571 
L 202.914941 -23.946868 
L 203.933795 -23.855972 
L 204.95265 -23.767805 
L 205.971504 -23.682289 
L 206.990358 -23.599348 
L 208.009212 -23.51891 
L 209.028067 -23.440902 
L 210.046921 -23.365255 
L 211.065775 -23.2919 
L 212.084629 -23.220771 
L 213.103484 -23.151804 
L 214.122338 -23.084935 
L 215.141192 -23.020104 
L 216.160047 -22.957251 
L 217.178901 -22.896317 
L 218.197755 -22.837247 
L 219.216609 -22.779984 
L 219.216609 -20.989375 
L 219.216609 -20.989375 
L 218.197755 -20.989375 
L 217.178901 -20.989375 
L 216.160047 -20.989375 
L 215.141192 -20.989375 
L 214.122338 -20.989375 
L 213.103484 -20.989375 
L 212.084629 -20.989375 
L 211.065775 -20.989375 
L 210.046921 -20.989375 
L 209.028067 -20.989375 
L 208.009212 -20.989375 
L 206.990358 -20.989375 
L 205.971504 -20.989375 
L 204.95265 -20.989375 
L 203.933795 -20.989375 
L 202.914941 -20.989375 
L 201.896087 -20.989375 
L 200.877232 -20.989375 
L 199.858378 -20.989375 
L 198.839524 -20.989375 
L 197.82067 -20.989375 
L 196.801815 -20.989375 
L 195.782961 -20.989375 
L 194.764107 -20.989375 
L 193.745253 -20.989375 
L 192.726398 -20.989375 
L 191.707544 -20.989375 
L 190.68869 -20.989375 
L 189.669836 -20.989375 
L 188.650981 -20.989375 
L 187.632127 -20.989375 
L 186.613273 -20.989375 
L 185.594418 -20.989375 
L 184.575564 -20.989375 
L 183.55671 -20.989375 
L 182.537856 -20.989375 
L 181.519001 -20.989375 
L 180.500147 -20.989375 
L 179.481293 -20.989375 
L 178.462439 -20.989375 
L 177.443584 -20.989375 
L 176.42473 -20.989375 
L 175.405876 -20.989375 
L 174.387021 -20.989375 
L 173.368167 -20.989375 
L 172.349313 -20.989375 
L 171.330459 -20.989375 
L 170.311604 -20.989375 
L 169.29275 -20.989375 
L 168.273896 -20.989375 
L 167.255042 -20.989375 
L 166.236187 -20.989375 
L 165.217333 -20.989375 
L 164.198479 -20.989375 
L 163.179624 -20.989375 
L 162.16077 -20.989375 
L 161.141916 -20.989375 
L 160.123062 -20.989375 
L 159.104207 -20.989375 
L 158.085353 -20.989375 
L 157.066499 -20.989375 
L 156.047645 -20.989375 
L 155.02879 -20.989375 
L 154.009936 -20.989375 
L 152.991082 -20.989375 
L 151.972227 -20.989375 
L 150.953373 -20.989375 
L 149.934519 -20.989375 
L 148.915665 -20.989375 
L 147.89681 -20.989375 
L 146.877956 -20.989375 
L 145.859102 -20.989375 
L 144.840248 -20.989375 
L 143.821393 -20.989375 
L 142.802539 -20.989375 
L 141.783685 -20.989375 
L 140.76483 -20.989375 
L 139.745976 -20.989375 
L 138.727122 -20.989375 
L 137.708268 -20.989375 
L 136.689413 -20.989375 
L 135.670559 -20.989375 
L 134.651705 -20.989375 
L 133.632851 -20.989375 
L 132.613996 -20.989375 
L 131.595142 -20.989375 
L 130.576288 -20.989375 
L 129.557433 -20.989375 
L 128.538579 -20.989375 
L 127.519725 -20.989375 
L 126.500871 -20.989375 
L 125.482016 -20.989375 
L 124.463162 -20.989375 
L 123.444308 -20.989375 
L 122.425454 -20.989375 
L 121.406599 -20.989375 
L 120.387745 -20.989375 
L 119.368891 -20.989375 
L 118.350037 -20.989375 
L 117.331182 -20.989375 
L 116.312328 -20.989375 
L 115.293474 -20.989375 
L 114.274619 -20.989375 
L 113.255765 -20.989375 
L 112.236911 -20.989375 
L 111.218057 -20.989375 
L 110.199202 -20.989375 
L 109.180348 -20.989375 
L 108.161494 -20.989375 
L 107.14264 -20.989375 
L 106.123785 -20.989375 
L 105.104931 -20.989375 
L 104.086077 -20.989375 
L 103.067222 -20.989375 
L 102.048368 -20.989375 
L 101.029514 -20.989375 
L 100.01066 -20.989375 
L 98.991805 -20.989375 
L 97.972951 -20.989375 
L 96.954097 -20.989375 
L 95.935243 -20.989375 
L 94.916388 -20.989375 
L 93.897534 -20.989375 
L 92.87868 -20.989375 
L 91.859825 -20.989375 
L 90.840971 -20.989375 
L 89.822117 -20.989375 
L 88.803263 -20.989375 
L 87.784408 -20.989375 
L 86.765554 -20.989375 
L 85.7467 -20.989375 
L 84.727846 -20.989375 
L 83.708991 -20.989375 
L 82.690137 -20.989375 
L 81.671283 -20.989375 
L 80.652428 -20.989375 
L 79.633574 -20.989375 
L 78.61472 -20.989375 
L 77.595866 -20.989375 
L 76.577011 -20.989375 
L 75.558157 -20.989375 
L 74.539303 -20.989375 
L 73.520449 -20.989375 
L 72.501594 -20.989375 
L 71.48274 -20.989375 
L 70.463886 -20.989375 
L 69.445031 -20.989375 
L 68.426177 -20.989375 
L 67.407323 -20.989375 
L 66.388469 -20.989375 
L 65.369614 -20.989375 
L 64.35076 -20.989375 
L 63.331906 -20.989375 
L 62.313052 -20.989375 
L 61.294197 -20.989375 
L 60.275343 -20.989375 
L 59.256489 -20.989375 
L 58.237635 -20.989375 
L 57.21878 -20.989375 
L 56.199926 -20.989375 
L 55.181072 -20.989375 
L 54.162217 -20.989375 
L 53.143363 -20.989375 
L 52.124509 -20.989375 
L 51.105655 -20.989375 
L 50.0868 -20.989375 
L 49.067946 -20.989375 
L 48.049092 -20.989375 
L 47.030238 -20.989375 
L 46.011383 -20.989375 
L 44.992529 -20.989375 
L 43.973675 -20.989375 
L 42.95482 -20.989375 
L 41.935966 -20.989375 
L 40.917112 -20.989375 
L 39.898258 -20.989375 
L 38.879403 -20.989375 
L 37.860549 -20.989375 
L 36.841695 -20.989375 
L 35.822841 -20.989375 
L 34.803986 -20.989375 
L 33.785132 -20.989375 
L 32.766278 -20.989375 
L 31.747423 -20.989375 
L 30.728569 -20.989375 
L 29.709715 -20.989375 
L 28.690861 -20.989375 
L 27.672006 -20.989375 
L 26.653152 -20.989375 
L 25.634298 -20.989375 
L 24.615444 -20.989375 
L 23.596589 -20.989375 
L 22.577735 -20.989375 
L 21.558881 -20.989375 
L 20.540026 -20.989375 
L 19.521172 -20.989375 
L 18.502318 -20.989375 
L 17.483464 -20.989375 
L 16.464609 -20.989375 
z
" style="stroke: #3b82f6; stroke-opacity: 0.15"/>
    </defs>
    <g clip-path="url(#p422dcd72b9)">
     <use xlink:href="#m3c191ab05b" x="0" y="88.093375" style="fill: #3b82f6; fill-opacity: 0.15; stroke: #3b82f6; stroke-opacity: 0.15"/>
    </g>
   </g>
   <g id="matplotlib.axis_1">
    <g id="xtick_1">
     <g id="line2d_1">
      <defs>
       <path id="m488fe34bc8" d="M 0 0 
L 0 3 
" style="stroke: #94a3b8; stroke-width: 0.5"/>
      </defs>
      <g>
       <use xlink:href="#m488fe34bc8" x="40.794849" y="67.104" style="fill: #94a3b8; stroke: #94a3b8; stroke-width: 0.5"/>
      </g>
     </g>
     <g id="text_1">
      <!-- 80 -->
      <g style="fill: #94a3b8" transform="translate(36.341099 77.422906) scale(0.07 -0.07)">
       <defs>
        <path id="DejaVuSans-38" d="M 2034 2216 
Q 1584 2216 1326 1975 
Q 1069 1734 1069 1313 
Q 1069 891 1326 650 
Q 1584 409 2034 409 
Q 2484 409 2743 651 
Q 3003 894 3003 1313 
Q 3003 1734 2745 1975 
Q 2488 2216 2034 2216 
z
M 1403 2484 
Q 997 2584 770 2862 
Q 544 3141 544 3541 
Q 544 4100 942 4425 
Q 1341 4750 2034 4750 
Q 2731 4750 3128 4425 
Q 3525 4100 3525 3541 
Q 3525 3141 3298 2862 
Q 3072 2584 2669 2484 
Q 3125 2378 3379 2068 
Q 3634 1759 3634 1313 
Q 3634 634 3220 271 
Q 2806 -91 2034 -91 
Q 1263 -91 848 271 
Q 434 634 434 1313 
Q 434 1759 690 2068 
Q 947 2378 1403 2484 
z
M 1172 3481 
Q 1172 3119 1398 2916 
Q 1625 2713 2034 2713 
Q 2441 2713 2670 2916 
Q 2900 3119 2900 3481 
Q 2900 3844 2670 4047 
Q 2441 4250 2034 4250 
Q 1625 4250 1398 4047 
Q 1172 3844 1172 3481 
z
" transform="scale(0.015625)"/>
        <path id="DejaVuSans-30" d="M 2034 4250 
Q 1547 4250 1301 3770 
Q 1056 3291 1056 2328 
Q 1056 1369 1301 889 
Q 1547 409 2034 409 
Q 2525 409 2770 889 
Q 3016 1369 3016 2328 
Q 3016 3291 2770 3770 
Q 2525 4250 2034 4250 
z
M 2034 4750 
Q 2819 4750 3233 4129 
Q 3647 3509 3647 2328 
Q 3647 1150 3233 529 
Q 2819 -91 2034 -91 
Q 1250 -91 836 529 
Q 422 1150 422 2328 
Q 422 3509 836 4129 
Q 1250 4750 2034 4750 
z
" transform="scale(0.015625)"/>
       </defs>
       <use xlink:href="#DejaVuSans-38"/>
       <use xlink:href="#DejaVuSans-30" transform="translate(63.623047 0)"/>
      </g>
     </g>
    </g>
    <g id="xtick_2">
     <g id="line2d_2">
      <g>
       <use xlink:href="#m488fe34bc8" x="89.455329" y="67.104" style="fill: #94a3b8; stroke: #94a3b8; stroke-width: 0.5"/>
      </g>
     </g>
     <g id="text_2">
      <!-- 140 -->
      <g style="fill: #94a3b8" transform="translate(82.774704 77.422906) scale(0.07 -0.07)">
       <defs>
        <path id="DejaVuSans-31" d="M 794 531 
L 1825 531 
L 1825 4091 
L 703 3866 
L 703 4441 
L 1819 4666 
L 2450 4666 
L 2450 531 
L 3481 531 
L 3481 0 
L 794 0 
L 794 531 
z
" transform="scale(0.015625)"/>
        <path id="DejaVuSans-34" d="M 2419 4116 
L 825 1625 
L 2419 1625 
L 2419 4116 
z
M 2253 4666 
L 3047 4666 
L 3047 1625 
L 3713 1625 
L 3713 1100 
L 3047 1100 
L 3047 0 
L 2419 0 
L 2419 1100 
L 313 1100 
L 313 1709 
L 2253 4666 
z
" transform="scale(0.015625)"/>
       </defs>
       <use xlink:href="#DejaVuSans-31"/>
       <use xlink:href="#DejaVuSans-34" transform="translate(63.623047 0)"/>
       <use xlink:href="#DejaVuSans-30" transform="translate(127.246094 0)"/>
      </g>
     </g>
    </g>
    <g id="xtick_3">
     <g id="line2d_3">
      <g>
       <use xlink:href="#m488fe34bc8" x="138.115809" y="67.104" style="fill: #94a3b8; stroke: #94a3b8; stroke-width: 0.5"/>
      </g>
     </g>
     <g id="text_3">
      <!-- 200 -->
      <g style="fill: #94a3b8" transform="translate(131.435184 77.422906) scale(0.07 -0.07)">
       <defs>
        <path id="DejaVuSans-32" d="M 1228 531 
L 3431 531 
L 3431 0 
L 469 0 
L 469 531 
Q 828 903 1448 1529 
Q 2069 2156 2228 2338 
Q 2531 2678 2651 2914 
Q 2772 3150 2772 3378 
Q 2772 3750 2511 3984 
Q 2250 4219 1831 4219 
Q 1534 4219 1204 4116 
Q 875 4013 500 3803 
L 500 4441 
Q 881 4594 1212 4672 
Q 1544 4750 1819 4750 
Q 2544 4750 2975 4387 
Q 3406 4025 3406 3419 
Q 3406 3131 3298 2873 
Q 3191 2616 2906 2266 
Q 2828 2175 2409 1742 
Q 1991 1309 1228 531 
z
" transform="scale(0.015625)"/>
       </defs>
       <use xlink:href="#DejaVuSans-32"/>
       <use xlink:href="#DejaVuSans-30" transform="translate(63.623047 0)"/>
       <use xlink:href="#DejaVuSans-30" transform="translate(127.246094 0)"/>
      </g>
     </g>
    </g>
    <g id="xtick_4">
     <g id="line2d_4">
      <g>
       <use xlink:href="#m488fe34bc8" x="186.776289" y="67.104" style="fill: #94a3b8; stroke: #94a3b8; stroke-width: 0.5"/>
      </g>
     </g>
     <g id="text_4">
      <!-- 260 -->
      <g style="fill: #94a3b8" transform="translate(180.095664 77.422906) scale(0.07 -0.07)">
       <defs>
        <path id="DejaVuSans-36" d="M 2113 2584 
Q 1688 2584 1439 2293 
Q 1191 2003 1191 1497 
Q 1191 994 1439 701 
Q 1688 409 2113 409 
Q 2538 409 2786 701 
Q 3034 994 3034 1497 
Q 3034 2003 2786 2293 
Q 2538 2584 2113 2584 
z
M 3366 4563 
L 3366 3988 
Q 3128 4100 2886 4159 
Q 2644 4219 2406 4219 
Q 1781 4219 1451 3797 
Q 1122 3375 1075 2522 
Q 1259 2794 1537 2939 
Q 1816 3084 2150 3084 
Q 2853 3084 3261 2657 
Q 3669 2231 3669 1497 
Q 3669 778 3244 343 
Q 2819 -91 2113 -91 
Q 1303 -91 875 529 
Q 447 1150 447 2328 
Q 447 3434 972 4092 
Q 1497 4750 2381 4750 
Q 2619 4750 2861 4703 
Q 3103 4656 3366 4563 
z
" transform="scale(0.015625)"/>
       </defs>
       <use xlink:href="#DejaVuSans-32"/>
       <use xlink:href="#DejaVuSans-36" transform="translate(63.623047 0)"/>
       <use xlink:href="#DejaVuSans-30" transform="translate(127.246094 0)"/>
      </g>
     </g>
    </g>
    <g id="text_5">
     <!-- units -->
     <g style="fill: #94a3b8" transform="translate(109.236625 85.197594) scale(0.07 -0.07)">
      <defs>
       <path id="DejaVuSans-75" d="M 544 1381 
L 544 3500 
L 1119 3500 
L 1119 1403 
Q 1119 906 1312 657 
Q 1506 409 1894 409 
Q 2359 409 2629 706 
Q 2900 1003 2900 1516 
L 2900 3500 
L 3475 3500 
L 3475 0 
L 2900 0 
L 2900 538 
Q 2691 219 2414 64 
Q 2138 -91 1772 -91 
Q 1169 -91 856 284 
Q 544 659 544 1381 
z
M 1991 3584 
L 1991 3584 
z
" transform="scale(0.015625)"/>
       <path id="DejaVuSans-6e" d="M 3513 2113 
L 3513 0 
L 2938 0 
L 2938 2094 
Q 2938 2591 2744 2837 
Q 2550 3084 2163 3084 
Q 1697 3084 1428 2787 
Q 1159 2491 1159 1978 
L 1159 0 
L 581 0 
L 581 3500 
L 1159 3500 
L 1159 2956 
Q 1366 3272 1645 3428 
Q 1925 3584 2291 3584 
Q 2894 3584 3203 3211 
Q 3513 2838 3513 2113 
z
" transform="scale(0.015625)"/>
       <path id="DejaVuSans-69" d="M 603 3500 
L 1178 3500 
L 1178 0 
L 603 0 
L 603 3500 
z
M 603 4863 
L 1178 4863 
L 1178 4134 
L 603 4134 
L 603 4863 
z
" transform="scale(0.015625)"/>
       <path id="DejaVuSans-74" d="M 1172 4494 
L 1172 3500 
L 2356 3500 
L 2356 3053 
L 1172 3053 
L 1172 1153 
Q 1172 725 1289 603 
Q 1406 481 1766 481 
L 2356 481 
L 2356 0 
L 1766 0 
Q 1100 0 847 248 
Q 594 497 594 1153 
L 594 3053 
L 172 3053 
L 172 3500 
L 594 3500 
L 594 4494 
L 1172 4494 
z
" transform="scale(0.015625)"/>
       <path id="DejaVuSans-73" d="M 2834 3397 
L 2834 2853 
Q 2591 2978 2328 3040 
Q 2066 3103 1784 3103 
Q 1356 3103 1142 2972 
Q 928 2841 928 2578 
Q 928 2378 1081 2264 
Q 1234 2150 1697 2047 
L 1894 2003 
Q 2506 1872 2764 1633 
Q 3022 1394 3022 966 
Q 3022 478 2636 193 
Q 2250 -91 1575 -91 
Q 1294 -91 989 -36 
Q 684 19 347 128 
L 347 722 
Q 666 556 975 473 
Q 1284 391 1588 391 
Q 1994 391 2212 530 
Q 2431 669 2431 922 
Q 2431 1156 2273 1281 
Q 2116 1406 1581 1522 
L 1381 1569 
Q 847 1681 609 1914 
Q 372 2147 372 2553 
Q 372 3047 722 3315 
Q 1072 3584 1716 3584 
Q 2034 3584 2315 3537 
Q 2597 3491 2834 3397 
z
" transform="scale(0.015625)"/>
      </defs>
      <use xlink:href="#DejaVuSans-75"/>
      <use xlink:href="#DejaVuSans-6e" transform="translate(63.378906 0)"/>
      <use xlink:href="#DejaVuSans-69" transform="translate(126.757812 0)"/>
      <use xlink:href="#DejaVuSans-74" transform="translate(154.541016 0)"/>
      <use xlink:href="#DejaVuSans-73" transform="translate(193.75 0)"/>
     </g>
    </g>
   </g>
   <g id="matplotlib.axis_2">
    <g id="text_6">
     <!-- p(y) -->
     <g style="fill: #94a3b8" transform="translate(1.44 32.816219) scale(0.07 -0.07)">
      <defs>
       <path id="DejaVuSans-70" d="M 1159 525 
L 1159 -1331 
L 581 -1331 
L 581 3500 
L 1159 3500 
L 1159 2969 
Q 1341 3281 1617 3432 
Q 1894 3584 2278 3584 
Q 2916 3584 3314 3078 
Q 3713 2572 3713 1747 
Q 3713 922 3314 415 
Q 2916 -91 2278 -91 
Q 1894 -91 1617 61 
Q 1341 213 1159 525 
z
M 3116 1747 
Q 3116 2381 2855 2742 
Q 2594 3103 2138 3103 
Q 1681 3103 1420 2742 
Q 1159 2381 1159 1747 
Q 1159 1113 1420 752 
Q 1681 391 2138 391 
Q 2594 391 2855 752 
Q 3116 1113 3116 1747 
z
" transform="scale(0.015625)"/>
       <path id="DejaVuSans-28" d="M 1984 4856 
Q 1566 4138 1362 3434 
Q 1159 2731 1159 2009 
Q 1159 1288 1364 580 
Q 1569 -128 1984 -844 
L 1484 -844 
Q 1016 -109 783 600 
Q 550 1309 550 2009 
Q 550 2706 781 3412 
Q 1013 4119 1484 4856 
L 1984 4856 
z
" transform="scale(0.015625)"/>
       <path id="DejaVuSans-79" d="M 2059 -325 
Q 1816 -950 1584 -1140 
Q 1353 -1331 966 -1331 
L 506 -1331 
L 506 -850 
L 844 -850 
Q 1081 -850 1212 -737 
Q 1344 -625 1503 -206 
L 1606 56 
L 191 3500 
L 800 3500 
L 1894 763 
L 2988 3500 
L 3597 3500 
L 2059 -325 
z
" transform="scale(0.015625)"/>
       <path id="DejaVuSans-29" d="M 513 4856 
L 1013 4856 
Q 1481 4119 1714 3412 
Q 1947 2706 1947 2009 
Q 1947 1309 1714 600 
Q 1481 -109 1013 -844 
L 513 -844 
Q 928 -128 1133 580 
Q 1338 1288 1338 2009 
Q 1338 2731 1133 3434 
Q 928 4138 513 4856 
z
" transform="scale(0.015625)"/>
      </defs>
      <use xlink:href="#DejaVuSans-70"/>
      <use xlink:href="#DejaVuSans-28" transform="translate(63.476562 0)"/>
      <use xlink:href="#DejaVuSans-79" transform="translate(102.490234 0)"/>
      <use xlink:href="#DejaVuSans-29" transform="translate(161.669922 0)"/>
     </g>
    </g>
   </g>
   <g id="line2d_5">
    <path d="M 16.464609 64.51805 
L 18.502318 63.475603 
L 20.540026 62.183613 
L 22.577735 60.630444 
L 24.615444 58.813663 
L 26.653152 56.740331 
L 28.690861 54.426663 
L 31.747423 50.561118 
L 34.803986 46.322467 
L 39.898258 38.800033 
L 46.011383 29.844961 
L 49.067946 25.709765 
L 52.124509 21.94859 
L 55.181072 18.642164 
L 57.21878 16.719378 
L 59.256489 15.035158 
L 61.294197 13.596015 
L 63.331906 12.404426 
L 65.369614 11.459237 
L 67.407323 10.756092 
L 69.445031 10.287874 
L 71.48274 10.045148 
L 73.520449 10.016594 
L 75.558157 10.18941 
L 77.595866 10.549691 
L 79.633574 11.082774 
L 82.690137 12.173286 
L 85.7467 13.567037 
L 88.803263 15.213276 
L 92.87868 17.717338 
L 97.972951 21.196189 
L 105.104931 26.401356 
L 115.293474 33.845339 
L 121.406599 38.04639 
L 126.500871 41.309713 
L 131.595142 44.325934 
L 136.689413 47.081764 
L 141.783685 49.575282 
L 146.877956 51.812843 
L 151.972227 53.806517 
L 157.066499 55.572061 
L 162.16077 57.127334 
L 168.273896 58.742545 
L 174.387021 60.114403 
L 180.500147 61.27398 
L 187.632127 62.396873 
L 195.782961 63.426928 
L 203.933795 64.237403 
L 214.122338 65.00844 
L 219.216609 65.313391 
L 219.216609 65.313391 
" clip-path="url(#p422dcd72b9)" style="fill: none; stroke: #3b82f6; stroke-width: 1.5; stroke-linecap: square"/>
   </g>
   <g id="line2d_6">
    <path d="M 92.315942 67.104 
L 92.315942 1.44 
" clip-path="url(#p422dcd72b9)" style="fill: none; stroke-dasharray: 3.7,1.6; stroke-dashoffset: 0; stroke: #ef4444; stroke-opacity: 0.7"/>
   </g>
   <g id="patch_3">
    <path d="M 16.464609 67.104 
L 16.464609 1.44 
" style="fill: none; stroke: #94a3b8; stroke-width: 0.5; stroke-linejoin: miter; stroke-linecap: square"/>
   </g>
   <g id="patch_4">
    <path d="M 16.464609 67.104 
L 219.216609 67.104 
" style="fill: none; stroke: #94a3b8; stroke-width: 0.5; stroke-linejoin: miter; stroke-linecap: square"/>
   </g>
  </g>
 </g>
 <defs>
  <clipPath id="p422dcd72b9">
   <rect x="16.464609" y="1.44" width="202.752" height="65.664"/>
  </clipPath>
 </defs>
</svg>
