<?xml version="1.0" encoding="utf-8" standalone="no"?>
<!DOCTYPE svg PUBLIC "-//W3C//DTD SVG 1.1//EN"
  "http://www.w3.org/Graphics/SVG/1.1/DTD/svg11.dtd">
<svg xmlns:xlink="http://www.w3.org/1999/xlink" width="220.656609pt" height="88.093375pt" viewBox="0 0 220.656609 88.093375" xmlns="http://www.w3.org/2000/svg" version="1.1">
 <metadata>
  <rdf:RDF xmlns:dc="http://purl.org/dc/elements/1.1/" xmlns:cc="http://creativecommons.org/ns#" xmlns:rdf="http://www.w3.org/1999/02/22-rdf-syntax-ns#">
   <cc:Work>
    <dc:type rdf:resource="http://purl.org/dc/dcmitype/StillImage"/>
    <dc:date>2026-03-15T16:59:27.383161</dc:date>
    <dc:format>image/svg+xml</dc:format>
    <dc:creator>
     <cc:Agent>
      <dc:title>Matplotlib v3.10.7, https://matplotlib.org/</dc:title>
     </cc:Agent>
    </dc:creator>
   </cc:Work>
  </rdf:RDF>
 </metadata>
 <defs>
  <style type="text/css">*{stroke-linejoin: round; stroke-linecap: butt}</style>
 </defs>
 <g id="figure_1">
  <g id="patch_1">
   <path d="M 0 88.093375 
L 220.656609 88.093375 
L 220.656609 0 
L 0 0 
L 0 88.093375 
z
" style="fill: none; opacity: 0"/>
  </g>
  <g id="axes_1">
   <g id="patch_2">
    <path d="M 16.464609 67.104 
L 219.216609 67.104 
L 219.216609 1.44 
L 16.464609 1.44 
L 16.464609 67.104 
z
" style="fill: none; opacity: 0"/>
   </g>
   <g id="FillBetweenPolyCollection_1">
    <defs>
     <path id="m6e2d358b0c" d="M 16.464609 -20.989375 
L 16.464609 -21.210129 
L 17.14271 -21.245252 
L 17.82081 -21.285375 
L 18.49891 -21.331108 
L 19.177011 -21.383124 
L 19.855111 -21.442156 
L 20.533211 -21.509005 
L 21.211312 -21.584537 
L 21.889412 -21.669695 
L 22.567512 -21.765493 
L 23.245613 -21.873022 
L 23.923713 -21.993449 
L 24.601813 -22.128023 
L 25.279914 -22.278067 
L 25.958014 -22.444987 
L 26.636114 -22.630261 
L 27.314215 -22.835442 
L 27.992315 -23.062154 
L 28.670415 -23.312084 
L 29.348516 -23.586979 
L 30.026616 -23.888638 
L 30.704716 -24.2189 
L 31.382817 -24.579637 
L 32.060917 -24.972738 
L 32.739017 -25.400101 
L 33.417118 -25.863613 
L 34.095218 -26.365132 
L 34.773318 -26.906476 
L 35.451419 -27.489396 
L 36.129519 -28.115556 
L 36.807619 -28.786516 
L 37.48572 -29.503701 
L 38.16382 -30.268383 
L 38.84192 -31.081653 
L 39.520021 -31.944398 
L 40.198121 -32.857271 
L 40.876221 -33.820672 
L 41.554322 -34.834719 
L 42.232422 -35.899228 
L 42.910522 -37.013686 
L 43.588623 -38.177232 
L 44.266723 -39.388641 
L 44.944823 -40.646303 
L 45.622924 -41.948212 
L 46.301024 -43.291955 
L 46.979124 -44.674703 
L 47.657225 -46.093212 
L 48.335325 -47.543817 
L 49.013425 -49.022444 
L 49.691526 -50.524615 
L 50.369626 -52.045463 
L 51.047726 -53.579752 
L 51.725827 -55.121898 
L 52.403927 -56.666003 
L 53.082027 -58.20588 
L 53.760128 -59.735098 
L 54.438228 -61.247017 
L 55.116328 -62.734838 
L 55.794429 -64.191651 
L 56.472529 -65.610484 
L 57.150629 -66.984359 
L 57.82873 -68.306351 
L 58.50683 -69.56964 
L 59.18493 -70.767572 
L 59.863031 -71.893718 
L 60.541131 -72.94193 
L 61.219231 -73.906394 
L 61.897332 -74.781689 
L 62.575432 -75.562833 
L 63.253532 -76.245334 
L 63.931633 -76.82523 
L 64.609733 -77.299127 
L 65.287833 -77.664237 
L 65.965934 -77.918398 
L 66.644034 -78.060102 
L 67.322134 -78.088505 
L 68.000235 -78.003441 
L 68.678335 -77.805415 
L 69.356435 -77.495608 
L 70.034536 -77.075858 
L 70.712636 -76.548644 
L 71.390736 -75.917064 
L 72.068837 -75.184802 
L 72.746937 -74.356093 
L 73.425037 -73.435681 
L 74.103138 -72.428779 
L 74.781238 -71.341013 
L 75.459338 -70.178374 
L 76.137439 -68.947164 
L 76.815539 -67.653936 
L 77.493639 -66.305439 
L 78.17174 -64.908561 
L 78.84984 -63.470269 
L 79.52794 -61.997552 
L 80.206041 -60.497368 
L 80.884141 -58.976589 
L 81.562241 -57.441954 
L 82.240342 -55.900019 
L 82.918442 -54.357112 
L 83.596542 -52.819301 
L 84.274643 -51.292352 
L 84.952743 -49.781701 
L 85.630843 -48.292428 
L 86.308944 -46.829239 
L 86.987044 -45.396446 
L 87.665144 -43.997955 
L 88.343245 -42.637265 
L 89.021345 -41.317459 
L 89.699445 -40.041209 
L 90.377546 -38.810782 
L 91.055646 -37.628048 
L 91.733746 -36.494497 
L 92.411847 -35.411247 
L 93.089947 -34.37907 
L 93.768048 -33.398408 
L 94.446148 -32.469397 
L 95.124248 -31.591893 
L 95.802349 -30.765492 
L 96.480449 -29.98956 
L 97.158549 -29.263257 
L 97.83665 -28.585565 
L 98.51475 -27.955311 
L 99.19285 -27.371195 
L 99.870951 -26.831815 
L 100.549051 -26.335687 
L 101.227151 -25.881272 
L 101.905252 -25.466994 
L 102.583352 -25.091263 
L 103.261452 -24.752489 
L 103.939553 -24.449102 
L 104.617653 -24.179569 
L 105.295753 -23.942402 
L 105.973854 -23.736172 
L 106.651954 -23.559523 
L 107.330054 -23.411176 
L 108.008155 -23.289936 
L 108.686255 -23.194702 
L 109.364355 -23.124466 
L 110.042456 -23.07832 
L 110.720556 -23.055453 
L 111.398656 -23.055158 
L 112.076757 -23.076824 
L 112.754857 -23.119939 
L 113.432957 -23.184085 
L 114.111058 -23.268937 
L 114.789158 -23.374255 
L 115.467258 -23.499884 
L 116.145359 -23.645743 
L 116.823459 -23.811822 
L 117.501559 -23.998177 
L 118.17966 -24.204917 
L 118.85776 -24.432204 
L 119.53586 -24.680238 
L 120.213961 -24.949256 
L 120.892061 -25.239516 
L 121.570161 -25.551298 
L 122.248262 -25.884885 
L 122.926362 -26.240562 
L 123.604462 -26.618606 
L 124.282563 -27.019273 
L 124.960663 -27.442794 
L 125.638763 -27.889364 
L 126.316864 -28.359136 
L 126.994964 -28.852207 
L 127.673064 -29.368617 
L 128.351165 -29.908336 
L 129.029265 -30.47126 
L 129.707365 -31.0572 
L 130.385466 -31.665879 
L 131.063566 -32.296923 
L 131.741666 -32.949857 
L 132.419767 -33.624098 
L 133.097867 -34.318953 
L 133.775967 -35.033615 
L 134.454068 -35.767155 
L 135.132168 -36.518527 
L 135.810268 -37.286562 
L 136.488369 -38.069968 
L 137.166469 -38.867332 
L 137.844569 -39.677117 
L 138.52267 -40.497672 
L 139.20077 -41.327227 
L 139.87887 -42.163902 
L 140.556971 -43.00571 
L 141.235071 -43.850566 
L 141.913171 -44.696289 
L 142.591272 -45.540617 
L 143.269372 -46.381211 
L 143.947472 -47.215663 
L 144.625573 -48.041515 
L 145.303673 -48.85626 
L 145.981773 -49.657364 
L 146.659874 -50.44227 
L 147.337974 -51.208416 
L 148.016074 -51.953251 
L 148.694175 -52.67424 
L 149.372275 -53.368889 
L 150.050375 -54.03475 
L 150.728476 -54.669442 
L 151.406576 -55.27066 
L 152.084676 -55.836193 
L 152.762777 -56.363936 
L 153.440877 -56.851901 
L 154.118977 -57.298231 
L 154.797078 -57.701214 
L 155.475178 -58.059291 
L 156.153278 -58.371066 
L 156.831379 -58.635316 
L 157.509479 -58.851001 
L 158.187579 -59.017266 
L 158.86568 -59.133451 
L 159.54378 -59.199094 
L 160.22188 -59.213932 
L 160.899981 -59.177906 
L 161.578081 -59.09116 
L 162.256181 -58.954041 
L 162.934282 -58.767092 
L 163.612382 -58.531057 
L 164.290482 -58.246867 
L 164.968583 -57.91564 
L 165.646683 -57.538672 
L 166.324783 -57.117428 
L 167.002884 -56.653532 
L 167.680984 -56.148758 
L 168.359084 -55.605018 
L 169.037185 -55.024351 
L 169.715285 -54.408907 
L 170.393385 -53.760939 
L 171.071486 -53.082783 
L 171.749586 -52.376851 
L 172.427686 -51.645611 
L 173.105787 -50.891575 
L 173.783887 -50.117285 
L 174.461987 -49.3253 
L 175.140088 -48.518179 
L 175.818188 -47.69847 
L 176.496288 -46.868696 
L 177.174389 -46.031343 
L 177.852489 -45.188849 
L 178.530589 -44.343589 
L 179.20869 -43.497871 
L 179.88679 -42.65392 
L 180.56489 -41.813874 
L 181.242991 -40.979772 
L 181.921091 -40.153551 
L 182.599191 -39.337038 
L 183.277292 -38.531946 
L 183.955392 -37.739869 
L 184.633492 -36.962278 
L 185.311593 -36.200523 
L 185.989693 -35.455826 
L 186.667793 -34.729285 
L 187.345894 -34.021872 
L 188.023994 -33.334437 
L 188.702094 -32.667707 
L 189.380195 -32.022288 
L 190.058295 -31.398674 
L 190.736395 -30.797243 
L 191.414496 -30.218269 
L 192.092596 -29.66192 
L 192.770696 -29.128269 
L 193.448797 -28.617293 
L 194.126897 -28.128888 
L 194.804997 -27.662865 
L 195.483098 -27.218963 
L 196.161198 -26.796852 
L 196.839298 -26.396141 
L 197.517399 -26.016382 
L 198.195499 -25.657079 
L 198.873599 -25.317692 
L 199.5517 -24.997642 
L 200.2298 -24.696319 
L 200.9079 -24.413088 
L 201.586001 -24.147291 
L 202.264101 -23.898254 
L 202.942201 -23.665292 
L 203.620302 -23.447713 
L 204.298402 -23.24482 
L 204.976502 -23.05592 
L 205.654603 -22.880322 
L 206.332703 -22.717343 
L 207.010803 -22.56631 
L 207.688904 -22.426565 
L 208.367004 -22.29746 
L 209.045104 -22.17837 
L 209.723205 -22.068684 
L 210.401305 -21.967813 
L 211.079405 -21.87519 
L 211.757506 -21.790267 
L 212.435606 -21.712523 
L 213.113706 -21.641458 
L 213.791807 -21.576593 
L 214.469907 -21.517478 
L 215.148007 -21.463682 
L 215.826108 -21.414799 
L 216.504208 -21.370447 
L 217.182308 -21.330264 
L 217.860409 -21.293913 
L 218.538509 -21.261076 
L 219.216609 -21.231458 
L 219.216609 -20.989375 
L 219.216609 -20.989375 
L 218.538509 -20.989375 
L 217.860409 -20.989375 
L 217.182308 -20.989375 
L 216.504208 -20.989375 
L 215.826108 -20.989375 
L 215.148007 -20.989375 
L 214.469907 -20.989375 
L 213.791807 -20.989375 
L 213.113706 -20.989375 
L 212.435606 -20.989375 
L 211.757506 -20.989375 
L 211.079405 -20.989375 
L 210.401305 -20.989375 
L 209.723205 -20.989375 
L 209.045104 -20.989375 
L 208.367004 -20.989375 
L 207.688904 -20.989375 
L 207.010803 -20.989375 
L 206.332703 -20.989375 
L 205.654603 -20.989375 
L 204.976502 -20.989375 
L 204.298402 -20.989375 
L 203.620302 -20.989375 
L 202.942201 -20.989375 
L 202.264101 -20.989375 
L 201.586001 -20.989375 
L 200.9079 -20.989375 
L 200.2298 -20.989375 
L 199.5517 -20.989375 
L 198.873599 -20.989375 
L 198.195499 -20.989375 
L 197.517399 -20.989375 
L 196.839298 -20.989375 
L 196.161198 -20.989375 
L 195.483098 -20.989375 
L 194.804997 -20.989375 
L 194.126897 -20.989375 
L 193.448797 -20.989375 
L 192.770696 -20.989375 
L 192.092596 -20.989375 
L 191.414496 -20.989375 
L 190.736395 -20.989375 
L 190.058295 -20.989375 
L 189.380195 -20.989375 
L 188.702094 -20.989375 
L 188.023994 -20.989375 
L 187.345894 -20.989375 
L 186.667793 -20.989375 
L 185.989693 -20.989375 
L 185.311593 -20.989375 
L 184.633492 -20.989375 
L 183.955392 -20.989375 
L 183.277292 -20.989375 
L 182.599191 -20.989375 
L 181.921091 -20.989375 
L 181.242991 -20.989375 
L 180.56489 -20.989375 
L 179.88679 -20.989375 
L 179.20869 -20.989375 
L 178.530589 -20.989375 
L 177.852489 -20.989375 
L 177.174389 -20.989375 
L 176.496288 -20.989375 
L 175.818188 -20.989375 
L 175.140088 -20.989375 
L 174.461987 -20.989375 
L 173.783887 -20.989375 
L 173.105787 -20.989375 
L 172.427686 -20.989375 
L 171.749586 -20.989375 
L 171.071486 -20.989375 
L 170.393385 -20.989375 
L 169.715285 -20.989375 
L 169.037185 -20.989375 
L 168.359084 -20.989375 
L 167.680984 -20.989375 
L 167.002884 -20.989375 
L 166.324783 -20.989375 
L 165.646683 -20.989375 
L 164.968583 -20.989375 
L 164.290482 -20.989375 
L 163.612382 -20.989375 
L 162.934282 -20.989375 
L 162.256181 -20.989375 
L 161.578081 -20.989375 
L 160.899981 -20.989375 
L 160.22188 -20.989375 
L 159.54378 -20.989375 
L 158.86568 -20.989375 
L 158.187579 -20.989375 
L 157.509479 -20.989375 
L 156.831379 -20.989375 
L 156.153278 -20.989375 
L 155.475178 -20.989375 
L 154.797078 -20.989375 
L 154.118977 -20.989375 
L 153.440877 -20.989375 
L 152.762777 -20.989375 
L 152.084676 -20.989375 
L 151.406576 -20.989375 
L 150.728476 -20.989375 
L 150.050375 -20.989375 
L 149.372275 -20.989375 
L 148.694175 -20.989375 
L 148.016074 -20.989375 
L 147.337974 -20.989375 
L 146.659874 -20.989375 
L 145.981773 -20.989375 
L 145.303673 -20.989375 
L 144.625573 -20.989375 
L 143.947472 -20.989375 
L 143.269372 -20.989375 
L 142.591272 -20.989375 
L 141.913171 -20.989375 
L 141.235071 -20.989375 
L 140.556971 -20.989375 
L 139.87887 -20.989375 
L 139.20077 -20.989375 
L 138.52267 -20.989375 
L 137.844569 -20.989375 
L 137.166469 -20.989375 
L 136.488369 -20.989375 
L 135.810268 -20.989375 
L 135.132168 -20.989375 
L 134.454068 -20.989375 
L 133.775967 -20.989375 
L 133.097867 -20.989375 
L 132.419767 -20.989375 
L 131.741666 -20.989375 
L 131.063566 -20.989375 
L 130.385466 -20.989375 
L 129.707365 -20.989375 
L 129.029265 -20.989375 
L 128.351165 -20.989375 
L 127.673064 -20.989375 
L 126.994964 -20.989375 
L 126.316864 -20.989375 
L 125.638763 -20.989375 
L 124.960663 -20.989375 
L 124.282563 -20.989375 
L 123.604462 -20.989375 
L 122.926362 -20.989375 
L 122.248262 -20.989375 
L 121.570161 -20.989375 
L 120.892061 -20.989375 
L 120.213961 -20.989375 
L 119.53586 -20.989375 
L 118.85776 -20.989375 
L 118.17966 -20.989375 
L 117.501559 -20.989375 
L 116.823459 -20.989375 
L 116.145359 -20.989375 
L 115.467258 -20.989375 
L 114.789158 -20.989375 
L 114.111058 -20.989375 
L 113.432957 -20.989375 
L 112.754857 -20.989375 
L 112.076757 -20.989375 
L 111.398656 -20.989375 
L 110.720556 -20.989375 
L 110.042456 -20.989375 
L 109.364355 -20.989375 
L 108.686255 -20.989375 
L 108.008155 -20.989375 
L 107.330054 -20.989375 
L 106.651954 -20.989375 
L 105.973854 -20.989375 
L 105.295753 -20.989375 
L 104.617653 -20.989375 
L 103.939553 -20.989375 
L 103.261452 -20.989375 
L 102.583352 -20.989375 
L 101.905252 -20.989375 
L 101.227151 -20.989375 
L 100.549051 -20.989375 
L 99.870951 -20.989375 
L 99.19285 -20.989375 
L 98.51475 -20.989375 
L 97.83665 -20.989375 
L 97.158549 -20.989375 
L 96.480449 -20.989375 
L 95.802349 -20.989375 
L 95.124248 -20.989375 
L 94.446148 -20.989375 
L 93.768048 -20.989375 
L 93.089947 -20.989375 
L 92.411847 -20.989375 
L 91.733746 -20.989375 
L 91.055646 -20.989375 
L 90.377546 -20.989375 
L 89.699445 -20.989375 
L 89.021345 -20.989375 
L 88.343245 -20.989375 
L 87.665144 -20.989375 
L 86.987044 -20.989375 
L 86.308944 -20.989375 
L 85.630843 -20.989375 
L 84.952743 -20.989375 
L 84.274643 -20.989375 
L 83.596542 -20.989375 
L 82.918442 -20.989375 
L 82.240342 -20.989375 
L 81.562241 -20.989375 
L 80.884141 -20.989375 
L 80.206041 -20.989375 
L 79.52794 -20.989375 
L 78.84984 -20.989375 
L 78.17174 -20.989375 
L 77.493639 -20.989375 
L 76.815539 -20.989375 
L 76.137439 -20.989375 
L 75.459338 -20.989375 
L 74.781238 -20.989375 
L 74.103138 -20.989375 
L 73.425037 -20.989375 
L 72.746937 -20.989375 
L 72.068837 -20.989375 
L 71.390736 -20.989375 
L 70.712636 -20.989375 
L 70.034536 -20.989375 
L 69.356435 -20.989375 
L 68.678335 -20.989375 
L 68.000235 -20.989375 
L 67.322134 -20.989375 
L 66.644034 -20.989375 
L 65.965934 -20.989375 
L 65.287833 -20.989375 
L 64.609733 -20.989375 
L 63.931633 -20.989375 
L 63.253532 -20.989375 
L 62.575432 -20.989375 
L 61.897332 -20.989375 
L 61.219231 -20.989375 
L 60.541131 -20.989375 
L 59.863031 -20.989375 
L 59.18493 -20.989375 
L 58.50683 -20.989375 
L 57.82873 -20.989375 
L 57.150629 -20.989375 
L 56.472529 -20.989375 
L 55.794429 -20.989375 
L 55.116328 -20.989375 
L 54.438228 -20.989375 
L 53.760128 -20.989375 
L 53.082027 -20.989375 
L 52.403927 -20.989375 
L 51.725827 -20.989375 
L 51.047726 -20.989375 
L 50.369626 -20.989375 
L 49.691526 -20.989375 
L 49.013425 -20.989375 
L 48.335325 -20.989375 
L 47.657225 -20.989375 
L 46.979124 -20.989375 
L 46.301024 -20.989375 
L 45.622924 -20.989375 
L 44.944823 -20.989375 
L 44.266723 -20.989375 
L 43.588623 -20.989375 
L 42.910522 -20.989375 
L 42.232422 -20.989375 
L 41.554322 -20.989375 
L 40.876221 -20.989375 
L 40.198121 -20.989375 
L 39.520021 -20.989375 
L 38.84192 -20.989375 
L 38.16382 -20.989375 
L 37.48572 -20.989375 
L 36.807619 -20.989375 
L 36.129519 -20.989375 
L 35.451419 -20.989375 
L 34.773318 -20.989375 
L 34.095218 -20.989375 
L 33.417118 -20.989375 
L 32.739017 -20.989375 
L 32.060917 -20.989375 
L 31.382817 -20.989375 
L 30.704716 -20.989375 
L 30.026616 -20.989375 
L 29.348516 -20.989375 
L 28.670415 -20.989375 
L 27.992315 -20.989375 
L 27.314215 -20.989375 
L 26.636114 -20.989375 
L 25.958014 -20.989375 
L 25.279914 -20.989375 
L 24.601813 -20.989375 
L 23.923713 -20.989375 
L 23.245613 -20.989375 
L 22.567512 -20.989375 
L 21.889412 -20.989375 
L 21.211312 -20.989375 
L 20.533211 -20.989375 
L 19.855111 -20.989375 
L 19.177011 -20.989375 
L 18.49891 -20.989375 
L 17.82081 -20.989375 
L 17.14271 -20.989375 
L 16.464609 -20.989375 
z
" style="stroke: #3b82f6; stroke-opacity: 0.15"/>
    </defs>
    <g clip-path="url(#p3cbeed250b)">
     <use xlink:href="#m6e2d358b0c" x="0" y="88.093375" style="fill: #3b82f6; fill-opacity: 0.15; stroke: #3b82f6; stroke-opacity: 0.15"/>
    </g>
   </g>
   <g id="matplotlib.axis_1">
    <g id="xtick_1">
     <g id="line2d_1">
      <defs>
       <path id="mca13c30824" d="M 0 0 
L 0 3 
" style="stroke: #94a3b8; stroke-width: 0.5"/>
      </defs>
      <g>
       <use xlink:href="#mca13c30824" x="41.808609" y="67.104" style="fill: #94a3b8; stroke: #94a3b8; stroke-width: 0.5"/>
      </g>
     </g>
     <g id="text_1">
      <!-- 3 -->
      <g style="fill: #94a3b8" transform="translate(39.581734 77.422906) scale(0.07 -0.07)">
       <defs>
        <path id="DejaVuSans-33" d="M 2597 2516 
Q 3050 2419 3304 2112 
Q 3559 1806 3559 1356 
Q 3559 666 3084 287 
Q 2609 -91 1734 -91 
Q 1441 -91 1130 -33 
Q 819 25 488 141 
L 488 750 
Q 750 597 1062 519 
Q 1375 441 1716 441 
Q 2309 441 2620 675 
Q 2931 909 2931 1356 
Q 2931 1769 2642 2001 
Q 2353 2234 1838 2234 
L 1294 2234 
L 1294 2753 
L 1863 2753 
Q 2328 2753 2575 2939 
Q 2822 3125 2822 3475 
Q 2822 3834 2567 4026 
Q 2313 4219 1838 4219 
Q 1578 4219 1281 4162 
Q 984 4106 628 3988 
L 628 4550 
Q 988 4650 1302 4700 
Q 1616 4750 1894 4750 
Q 2613 4750 3031 4423 
Q 3450 4097 3450 3541 
Q 3450 3153 3228 2886 
Q 3006 2619 2597 2516 
z
" transform="scale(0.015625)"/>
       </defs>
       <use xlink:href="#DejaVuSans-33"/>
      </g>
     </g>
    </g>
    <g id="xtick_2">
     <g id="line2d_2">
      <g>
       <use xlink:href="#mca13c30824" x="67.152609" y="67.104" style="fill: #94a3b8; stroke: #94a3b8; stroke-width: 0.5"/>
      </g>
     </g>
     <g id="text_2">
      <!-- 6 -->
      <g style="fill: #94a3b8" transform="translate(64.925734 77.422906) scale(0.07 -0.07)">
       <defs>
        <path id="DejaVuSans-36" d="M 2113 2584 
Q 1688 2584 1439 2293 
Q 1191 2003 1191 1497 
Q 1191 994 1439 701 
Q 1688 409 2113 409 
Q 2538 409 2786 701 
Q 3034 994 3034 1497 
Q 3034 2003 2786 2293 
Q 2538 2584 2113 2584 
z
M 3366 4563 
L 3366 3988 
Q 3128 4100 2886 4159 
Q 2644 4219 2406 4219 
Q 1781 4219 1451 3797 
Q 1122 3375 1075 2522 
Q 1259 2794 1537 2939 
Q 1816 3084 2150 3084 
Q 2853 3084 3261 2657 
Q 3669 2231 3669 1497 
Q 3669 778 3244 343 
Q 2819 -91 2113 -91 
Q 1303 -91 875 529 
Q 447 1150 447 2328 
Q 447 3434 972 4092 
Q 1497 4750 2381 4750 
Q 2619 4750 2861 4703 
Q 3103 4656 3366 4563 
z
" transform="scale(0.015625)"/>
       </defs>
       <use xlink:href="#DejaVuSans-36"/>
      </g>
     </g>
    </g>
    <g id="xtick_3">
     <g id="line2d_3">
      <g>
       <use xlink:href="#mca13c30824" x="117.840609" y="67.104" style="fill: #94a3b8; stroke: #94a3b8; stroke-width: 0.5"/>
      </g>
     </g>
     <g id="text_3">
      <!-- 12 -->
      <g style="fill: #94a3b8" transform="translate(113.386859 77.422906) scale(0.07 -0.07)">
       <defs>
        <path id="DejaVuSans-31" d="M 794 531 
L 1825 531 
L 1825 4091 
L 703 3866 
L 703 4441 
L 1819 4666 
L 2450 4666 
L 2450 531 
L 3481 531 
L 3481 0 
L 794 0 
L 794 531 
z
" transform="scale(0.015625)"/>
        <path id="DejaVuSans-32" d="M 1228 531 
L 3431 531 
L 3431 0 
L 469 0 
L 469 531 
Q 828 903 1448 1529 
Q 2069 2156 2228 2338 
Q 2531 2678 2651 2914 
Q 2772 3150 2772 3378 
Q 2772 3750 2511 3984 
Q 2250 4219 1831 4219 
Q 1534 4219 1204 4116 
Q 875 4013 500 3803 
L 500 4441 
Q 881 4594 1212 4672 
Q 1544 4750 1819 4750 
Q 2544 4750 2975 4387 
Q 3406 4025 3406 3419 
Q 3406 3131 3298 2873 
Q 3191 2616 2906 2266 
Q 2828 2175 2409 1742 
Q 1991 1309 1228 531 
z
" transform="scale(0.015625)"/>
       </defs>
       <use xlink:href="#DejaVuSans-31"/>
       <use xlink:href="#DejaVuSans-32" transform="translate(63.623047 0)"/>
      </g>
     </g>
    </g>
    <g id="xtick_4">
     <g id="line2d_4">
      <g>
       <use xlink:href="#mca13c30824" x="168.528609" y="67.104" style="fill: #94a3b8; stroke: #94a3b8; stroke-width: 0.5"/>
      </g>
     </g>
     <g id="text_4">
      <!-- 18 -->
      <g style="fill: #94a3b8" transform="translate(164.074859 77.422906) scale(0.07 -0.07)">
       <defs>
        <path id="DejaVuSans-38" d="M 2034 2216 
Q 1584 2216 1326 1975 
Q 1069 1734 1069 1313 
Q 1069 891 1326 650 
Q 1584 409 2034 409 
Q 2484 409 2743 651 
Q 3003 894 3003 1313 
Q 3003 1734 2745 1975 
Q 2488 2216 2034 2216 
z
M 1403 2484 
Q 997 2584 770 2862 
Q 544 3141 544 3541 
Q 544 4100 942 4425 
Q 1341 4750 2034 4750 
Q 2731 4750 3128 4425 
Q 3525 4100 3525 3541 
Q 3525 3141 3298 2862 
Q 3072 2584 2669 2484 
Q 3125 2378 3379 2068 
Q 3634 1759 3634 1313 
Q 3634 634 3220 271 
Q 2806 -91 2034 -91 
Q 1263 -91 848 271 
Q 434 634 434 1313 
Q 434 1759 690 2068 
Q 947 2378 1403 2484 
z
M 1172 3481 
Q 1172 3119 1398 2916 
Q 1625 2713 2034 2713 
Q 2441 2713 2670 2916 
Q 2900 3119 2900 3481 
Q 2900 3844 2670 4047 
Q 2441 4250 2034 4250 
Q 1625 4250 1398 4047 
Q 1172 3844 1172 3481 
z
" transform="scale(0.015625)"/>
       </defs>
       <use xlink:href="#DejaVuSans-31"/>
       <use xlink:href="#DejaVuSans-38" transform="translate(63.623047 0)"/>
      </g>
     </g>
    </g>
    <g id="text_5">
     <!-- months -->
     <g style="fill: #94a3b8" transform="translate(104.658187 85.197594) scale(0.07 -0.07)">
      <defs>
       <path id="DejaVuSans-6d" d="M 3328 2828 
Q 3544 3216 3844 3400 
Q 4144 3584 4550 3584 
Q 5097 3584 5394 3201 
Q 5691 2819 5691 2113 
L 5691 0 
L 5113 0 
L 5113 2094 
Q 5113 2597 4934 2840 
Q 4756 3084 4391 3084 
Q 3944 3084 3684 2787 
Q 3425 2491 3425 1978 
L 3425 0 
L 2847 0 
L 2847 2094 
Q 2847 2600 2669 2842 
Q 2491 3084 2119 3084 
Q 1678 3084 1418 2786 
Q 1159 2488 1159 1978 
L 1159 0 
L 581 0 
L 581 3500 
L 1159 3500 
L 1159 2956 
Q 1356 3278 1631 3431 
Q 1906 3584 2284 3584 
Q 2666 3584 2933 3390 
Q 3200 3197 3328 2828 
z
" transform="scale(0.015625)"/>
       <path id="DejaVuSans-6f" d="M 1959 3097 
Q 1497 3097 1228 2736 
Q 959 2375 959 1747 
Q 959 1119 1226 758 
Q 1494 397 1959 397 
Q 2419 397 2687 759 
Q 2956 1122 2956 1747 
Q 2956 2369 2687 2733 
Q 2419 3097 1959 3097 
z
M 1959 3584 
Q 2709 3584 3137 3096 
Q 3566 2609 3566 1747 
Q 3566 888 3137 398 
Q 2709 -91 1959 -91 
Q 1206 -91 779 398 
Q 353 888 353 1747 
Q 353 2609 779 3096 
Q 1206 3584 1959 3584 
z
" transform="scale(0.015625)"/>
       <path id="DejaVuSans-6e" d="M 3513 2113 
L 3513 0 
L 2938 0 
L 2938 2094 
Q 2938 2591 2744 2837 
Q 2550 3084 2163 3084 
Q 1697 3084 1428 2787 
Q 1159 2491 1159 1978 
L 1159 0 
L 581 0 
L 581 3500 
L 1159 3500 
L 1159 2956 
Q 1366 3272 1645 3428 
Q 1925 3584 2291 3584 
Q 2894 3584 3203 3211 
Q 3513 2838 3513 2113 
z
" transform="scale(0.015625)"/>
       <path id="DejaVuSans-74" d="M 1172 4494 
L 1172 3500 
L 2356 3500 
L 2356 3053 
L 1172 3053 
L 1172 1153 
Q 1172 725 1289 603 
Q 1406 481 1766 481 
L 2356 481 
L 2356 0 
L 1766 0 
Q 1100 0 847 248 
Q 594 497 594 1153 
L 594 3053 
L 172 3053 
L 172 3500 
L 594 3500 
L 594 4494 
L 1172 4494 
z
" transform="scale(0.015625)"/>
       <path id="DejaVuSans-68" d="M 3513 2113 
L 3513 0 
L 2938 0 
L 2938 2094 
Q 2938 2591 2744 2837 
Q 2550 3084 2163 3084 
Q 1697 3084 1428 2787 
Q 1159 2491 1159 1978 
L 1159 0 
L 581 0 
L 581 4863 
L 1159 4863 
L 1159 2956 
Q 1366 3272 1645 3428 
Q 1925 3584 2291 3584 
Q 2894 3584 3203 3211 
Q 3513 2838 3513 2113 
z
" transform="scale(0.015625)"/>
       <path id="DejaVuSans-73" d="M 2834 3397 
L 2834 2853 
Q 2591 2978 2328 3040 
Q 2066 3103 1784 3103 
Q 1356 3103 1142 2972 
Q 928 2841 928 2578 
Q 928 2378 1081 2264 
Q 1234 2150 1697 2047 
L 1894 2003 
Q 2506 1872 2764 1633 
Q 3022 1394 3022 966 
Q 3022 478 2636 193 
Q 2250 -91 1575 -91 
Q 1294 -91 989 -36 
Q 684 19 347 128 
L 347 722 
Q 666 556 975 473 
Q 1284 391 1588 391 
Q 1994 391 2212 530 
Q 2431 669 2431 922 
Q 2431 1156 2273 1281 
Q 2116 1406 1581 1522 
L 1381 1569 
Q 847 1681 609 1914 
Q 372 2147 372 2553 
Q 372 3047 722 3315 
Q 1072 3584 1716 3584 
Q 2034 3584 2315 3537 
Q 2597 3491 2834 3397 
z
" transform="scale(0.015625)"/>
      </defs>
      <use xlink:href="#DejaVuSans-6d"/>
      <use xlink:href="#DejaVuSans-6f" transform="translate(97.412109 0)"/>
      <use xlink:href="#DejaVuSans-6e" transform="translate(158.59375 0)"/>
      <use xlink:href="#DejaVuSans-74" transform="translate(221.972656 0)"/>
      <use xlink:href="#DejaVuSans-68" transform="translate(261.181641 0)"/>
      <use xlink:href="#DejaVuSans-73" transform="translate(324.560547 0)"/>
     </g>
    </g>
   </g>
   <g id="matplotlib.axis_2">
    <g id="text_6">
     <!-- p(y) -->
     <g style="fill: #94a3b8" transform="translate(1.44 32.816219) scale(0.07 -0.07)">
      <defs>
       <path id="DejaVuSans-70" d="M 1159 525 
L 1159 -1331 
L 581 -1331 
L 581 3500 
L 1159 3500 
L 1159 2969 
Q 1341 3281 1617 3432 
Q 1894 3584 2278 3584 
Q 2916 3584 3314 3078 
Q 3713 2572 3713 1747 
Q 3713 922 3314 415 
Q 2916 -91 2278 -91 
Q 1894 -91 1617 61 
Q 1341 213 1159 525 
z
M 3116 1747 
Q 3116 2381 2855 2742 
Q 2594 3103 2138 3103 
Q 1681 3103 1420 2742 
Q 1159 2381 1159 1747 
Q 1159 1113 1420 752 
Q 1681 391 2138 391 
Q 2594 391 2855 752 
Q 3116 1113 3116 1747 
z
" transform="scale(0.015625)"/>
       <path id="DejaVuSans-28" d="M 1984 4856 
Q 1566 4138 1362 3434 
Q 1159 2731 1159 2009 
Q 1159 1288 1364 580 
Q 1569 -128 1984 -844 
L 1484 -844 
Q 1016 -109 783 600 
Q 550 1309 550 2009 
Q 550 2706 781 3412 
Q 1013 4119 1484 4856 
L 1984 4856 
z
" transform="scale(0.015625)"/>
       <path id="DejaVuSans-79" d="M 2059 -325 
Q 1816 -950 1584 -1140 
Q 1353 -1331 966 -1331 
L 506 -1331 
L 506 -850 
L 844 -850 
Q 1081 -850 1212 -737 
Q 1344 -625 1503 -206 
L 1606 56 
L 191 3500 
L 800 3500 
L 1894 763 
L 2988 3500 
L 3597 3500 
L 2059 -325 
z
" transform="scale(0.015625)"/>
       <path id="DejaVuSans-29" d="M 513 4856 
L 1013 4856 
Q 1481 4119 1714 3412 
Q 1947 2706 1947 2009 
Q 1947 1309 1714 600 
Q 1481 -109 1013 -844 
L 513 -844 
Q 928 -128 1133 580 
Q 1338 1288 1338 2009 
Q 1338 2731 1133 3434 
Q 928 4138 513 4856 
z
" transform="scale(0.015625)"/>
      </defs>
      <use xlink:href="#DejaVuSans-70"/>
      <use xlink:href="#DejaVuSans-28" transform="translate(63.476562 0)"/>
      <use xlink:href="#DejaVuSans-79" transform="translate(102.490234 0)"/>
      <use xlink:href="#DejaVuSans-29" transform="translate(161.669922 0)"/>
     </g>
    </g>
   </g>
   <g id="line2d_5">
    <path d="M 16.464609 66.883246 
L 20.533211 66.58437 
L 23.923713 66.099926 
L 26.636114 65.463114 
L 28.670415 64.781291 
L 30.704716 63.874475 
L 32.739017 62.693274 
L 34.773318 61.186899 
L 36.807619 59.306859 
L 38.84192 57.011722 
L 40.876221 54.272703 
L 42.910522 51.079689 
L 44.944823 47.447072 
L 47.657225 42.000163 
L 51.047726 34.513623 
L 55.794429 23.901724 
L 57.82873 19.787024 
L 59.863031 16.199657 
L 61.219231 14.186981 
L 62.575432 12.530542 
L 63.931633 11.268145 
L 65.287833 10.429138 
L 66.644034 10.033273 
L 67.322134 10.00487 
L 68.000235 10.089934 
L 69.356435 10.597767 
L 70.712636 11.544731 
L 72.068837 12.908573 
L 73.425037 14.657694 
L 74.781238 16.752362 
L 76.815539 20.439439 
L 78.84984 24.623106 
L 82.240342 32.193356 
L 86.308944 41.264136 
L 89.021345 46.775916 
L 91.055646 50.465327 
L 93.089947 53.714305 
L 95.124248 56.501482 
L 97.158549 58.830118 
L 99.19285 60.72218 
L 101.227151 62.212103 
L 103.261452 63.340886 
L 105.295753 64.150973 
L 107.330054 64.682199 
L 109.364355 64.968909 
L 111.398656 65.038217 
L 113.432957 64.90929 
L 115.467258 64.593491 
L 117.501559 64.095198 
L 119.53586 63.413137 
L 121.570161 62.542077 
L 123.604462 61.474769 
L 125.638763 60.204011 
L 127.673064 58.724758 
L 130.385466 56.427496 
L 133.097867 53.774422 
L 135.810268 50.806813 
L 139.20077 46.766148 
L 147.337974 36.884959 
L 150.050375 34.058625 
L 152.084676 32.257182 
L 154.118977 30.795144 
L 155.475178 30.034084 
L 156.831379 29.458059 
L 158.187579 29.076109 
L 159.54378 28.894281 
L 160.899981 28.915469 
L 162.256181 29.139334 
L 163.612382 29.562318 
L 164.968583 30.177735 
L 166.324783 30.975947 
L 168.359084 32.488357 
L 170.393385 34.332436 
L 173.105787 37.2018 
L 176.496288 41.224679 
L 184.633492 51.131097 
L 187.345894 54.071503 
L 190.058295 56.694701 
L 192.770696 58.965106 
L 195.483098 60.874412 
L 198.195499 62.436296 
L 200.9079 63.680287 
L 203.620302 64.645662 
L 206.332703 65.376032 
L 209.723205 66.024691 
L 213.113706 66.451917 
L 217.860409 66.799462 
L 219.216609 66.861917 
L 219.216609 66.861917 
" clip-path="url(#p3cbeed250b)" style="fill: none; stroke: #3b82f6; stroke-width: 1.5; stroke-linecap: square"/>
   </g>
   <g id="line2d_6">
    <path d="M 108.970209 67.104 
L 108.970209 1.44 
" clip-path="url(#p3cbeed250b)" style="fill: none; stroke-dasharray: 3.7,1.6; stroke-dashoffset: 0; stroke: #ef4444; stroke-opacity: 0.7"/>
   </g>
   <g id="line2d_7">
    <path d="M 67.152609 67.104 
L 67.152609 1.44 
" clip-path="url(#p3cbeed250b)" style="fill: none; stroke-dasharray: 1,1.65; stroke-dashoffset: 0; stroke: #22c55e; stroke-opacity: 0.7"/>
   </g>
   <g id="line2d_8">
    <path d="M 160.080609 67.104 
L 160.080609 1.44 
" clip-path="url(#p3cbeed250b)" style="fill: none; stroke-dasharray: 1,1.65; stroke-dashoffset: 0; stroke: #22c55e; stroke-opacity: 0.7"/>
   </g>
   <g id="patch_3">
    <path d="M 16.464609 67.104 
L 16.464609 1.44 
" style="fill: none; stroke: #94a3b8; stroke-width: 0.5; stroke-linejoin: miter; stroke-linecap: square"/>
   </g>
   <g id="patch_4">
    <path d="M 16.464609 67.104 
L 219.216609 67.104 
" style="fill: none; stroke: #94a3b8; stroke-width: 0.5; stroke-linejoin: miter; stroke-linecap: square"/>
   </g>
  </g>
 </g>
 <defs>
  <clipPath id="p3cbeed250b">
   <rect x="16.464609" y="1.44" width="202.752" height="65.664"/>
  </clipPath>
 </defs>
</svg>
