<?xml version="1.0" encoding="utf-8" standalone="no"?>
<!DOCTYPE svg PUBLIC "-//W3C//DTD SVG 1.1//EN"
  "http://www.w3.org/Graphics/SVG/1.1/DTD/svg11.dtd">
<svg xmlns:xlink="http://www.w3.org/1999/xlink" width="220.656609pt" height="88.093375pt" viewBox="0 0 220.656609 88.093375" xmlns="http://www.w3.org/2000/svg" version="1.1">
 <metadata>
  <rdf:RDF xmlns:dc="http://purl.org/dc/elements/1.1/" xmlns:cc="http://creativecommons.org/ns#" xmlns:rdf="http://www.w3.org/1999/02/22-rdf-syntax-ns#">
   <cc:Work>
    <dc:type rdf:resource="http://purl.org/dc/dcmitype/StillImage"/>
    <dc:date>2026-03-15T16:59:27.336829</dc:date>
    <dc:format>image/svg+xml</dc:format>
    <dc:creator>
     <cc:Agent>
      <dc:title>Matplotlib v3.10.7, https://matplotlib.org/</dc:title>
     </cc:Agent>
    </dc:creator>
   </cc:Work>
  </rdf:RDF>
 </metadata>
 <defs>
  <style type="text/css">*{stroke-linejoin: round; stroke-linecap: butt}</style>
 </defs>
 <g id="figure_1">
  <g id="patch_1">
   <path d="M 0 88.093375 
L 220.656609 88.093375 
L 220.656609 0 
L 0 0 
L 0 88.093375 
z
" style="fill: none; opacity: 0"/>
  </g>
  <g id="axes_1">
   <g id="patch_2">
    <path d="M 16.464609 67.104 
L 219.216609 67.104 
L 219.216609 1.44 
L 16.464609 1.44 
L 16.464609 67.104 
z
" style="fill: none; opacity: 0"/>
   </g>
   <g id="FillBetweenPolyCollection_1">
    <defs>
     <path id="m70733ac7db" d="M 16.464609 -20.989375 
L 16.464609 -20.998267 
L 17.483464 -20.999916 
L 18.502318 -21.00185 
L 19.521172 -21.004115 
L 20.540026 -21.006761 
L 21.558881 -21.009849 
L 22.577735 -21.013445 
L 23.596589 -21.017625 
L 24.615444 -21.022476 
L 25.634298 -21.028095 
L 26.653152 -21.034593 
L 27.672006 -21.042093 
L 28.690861 -21.050735 
L 29.709715 -21.060675 
L 30.728569 -21.072087 
L 31.747423 -21.085166 
L 32.766278 -21.100128 
L 33.785132 -21.117213 
L 34.803986 -21.136689 
L 35.822841 -21.158849 
L 36.841695 -21.184017 
L 37.860549 -21.212551 
L 38.879403 -21.244842 
L 39.898258 -21.281317 
L 40.917112 -21.322445 
L 41.935966 -21.368734 
L 42.95482 -21.420737 
L 43.973675 -21.479051 
L 44.992529 -21.544322 
L 46.011383 -21.617246 
L 47.030238 -21.698569 
L 48.049092 -21.789091 
L 49.067946 -21.889666 
L 50.0868 -22.001201 
L 51.105655 -22.12466 
L 52.124509 -22.261061 
L 53.143363 -22.411477 
L 54.162217 -22.577036 
L 55.181072 -22.758917 
L 56.199926 -22.958349 
L 57.21878 -23.176609 
L 58.237635 -23.415015 
L 59.256489 -23.674927 
L 60.275343 -23.957736 
L 61.294197 -24.264862 
L 62.313052 -24.597745 
L 63.331906 -24.957838 
L 64.35076 -25.346597 
L 65.369614 -25.76547 
L 66.388469 -26.215891 
L 67.407323 -26.699263 
L 68.426177 -27.21695 
L 69.445031 -27.77026 
L 70.463886 -28.360432 
L 71.48274 -28.988624 
L 72.501594 -29.655894 
L 73.520449 -30.363185 
L 74.539303 -31.111313 
L 75.558157 -31.900944 
L 76.577011 -32.732583 
L 77.595866 -33.606555 
L 78.61472 -34.522993 
L 79.633574 -35.481816 
L 80.652428 -36.482719 
L 81.671283 -37.525161 
L 82.690137 -38.608345 
L 83.708991 -39.731215 
L 84.727846 -40.89244 
L 85.7467 -42.090408 
L 86.765554 -43.32322 
L 87.784408 -44.588684 
L 88.803263 -45.884317 
L 89.822117 -47.207339 
L 90.840971 -48.554682 
L 91.859825 -49.922992 
L 92.87868 -51.308638 
L 93.897534 -52.707724 
L 94.916388 -54.116103 
L 95.935243 -55.52939 
L 96.954097 -56.942987 
L 97.972951 -58.352101 
L 98.991805 -59.75177 
L 100.01066 -61.136891 
L 101.029514 -62.502246 
L 102.048368 -63.842539 
L 103.067222 -65.152423 
L 104.086077 -66.426537 
L 105.104931 -67.659546 
L 106.123785 -68.846169 
L 107.14264 -69.981224 
L 108.161494 -71.059663 
L 109.180348 -72.076607 
L 110.199202 -73.027384 
L 111.218057 -73.907567 
L 112.236911 -74.713004 
L 113.255765 -75.439855 
L 114.274619 -76.084618 
L 115.293474 -76.644162 
L 116.312328 -77.115746 
L 117.331182 -77.497048 
L 118.350037 -77.78618 
L 119.368891 -77.981705 
L 120.387745 -78.082648 
L 121.406599 -78.088505 
L 122.425454 -77.999247 
L 123.444308 -77.81532 
L 124.463162 -77.537641 
L 125.482016 -77.16759 
L 126.500871 -76.707 
L 127.519725 -76.158143 
L 128.538579 -75.523707 
L 129.557433 -74.806778 
L 130.576288 -74.010812 
L 131.595142 -73.13961 
L 132.613996 -72.197288 
L 133.632851 -71.18824 
L 134.651705 -70.117111 
L 135.670559 -68.988754 
L 136.689413 -67.808201 
L 137.708268 -66.580618 
L 138.727122 -65.311275 
L 139.745976 -64.005505 
L 140.76483 -62.668666 
L 141.783685 -61.306108 
L 142.802539 -59.923136 
L 143.821393 -58.524979 
L 144.840248 -57.116757 
L 145.859102 -55.703449 
L 146.877956 -54.289872 
L 147.89681 -52.880648 
L 148.915665 -51.480189 
L 149.934519 -50.092674 
L 150.953373 -48.722029 
L 151.972227 -47.371919 
L 152.991082 -46.045732 
L 154.009936 -44.746572 
L 155.02879 -43.477255 
L 156.047645 -42.2403 
L 157.066499 -41.037935 
L 158.085353 -39.872095 
L 159.104207 -38.744427 
L 160.123062 -37.656296 
L 161.141916 -36.608792 
L 162.16077 -35.602742 
L 163.179624 -34.638718 
L 164.198479 -33.717056 
L 165.217333 -32.83786 
L 166.236187 -32.001024 
L 167.255042 -31.206247 
L 168.273896 -30.453044 
L 169.29275 -29.740767 
L 170.311604 -29.068621 
L 171.330459 -28.435674 
L 172.349313 -27.840883 
L 173.368167 -27.283102 
L 174.387021 -26.7611 
L 175.405876 -26.273577 
L 176.42473 -25.819175 
L 177.443584 -25.396496 
L 178.462439 -25.004109 
L 179.481293 -24.640567 
L 180.500147 -24.304413 
L 181.519001 -23.994195 
L 182.537856 -23.70847 
L 183.55671 -23.445816 
L 184.575564 -23.204837 
L 185.594418 -22.98417 
L 186.613273 -22.78249 
L 187.632127 -22.598517 
L 188.650981 -22.431013 
L 189.669836 -22.278795 
L 190.68869 -22.140728 
L 191.707544 -22.015732 
L 192.726398 -21.902783 
L 193.745253 -21.800909 
L 194.764107 -21.709197 
L 195.782961 -21.626786 
L 196.801815 -21.552869 
L 197.82067 -21.486695 
L 198.839524 -21.427561 
L 199.858378 -21.374815 
L 200.877232 -21.327853 
L 201.896087 -21.286118 
L 202.914941 -21.249096 
L 203.933795 -21.216314 
L 204.95265 -21.18734 
L 205.971504 -21.161777 
L 206.990358 -21.139265 
L 208.009212 -21.119476 
L 209.028067 -21.102111 
L 210.046921 -21.086901 
L 211.065775 -21.073603 
L 212.084629 -21.061997 
L 213.103484 -21.051885 
L 214.122338 -21.043092 
L 215.141192 -21.035459 
L 216.160047 -21.028845 
L 217.178901 -21.023124 
L 218.197755 -21.018184 
L 219.216609 -21.013926 
L 219.216609 -20.989375 
L 219.216609 -20.989375 
L 218.197755 -20.989375 
L 217.178901 -20.989375 
L 216.160047 -20.989375 
L 215.141192 -20.989375 
L 214.122338 -20.989375 
L 213.103484 -20.989375 
L 212.084629 -20.989375 
L 211.065775 -20.989375 
L 210.046921 -20.989375 
L 209.028067 -20.989375 
L 208.009212 -20.989375 
L 206.990358 -20.989375 
L 205.971504 -20.989375 
L 204.95265 -20.989375 
L 203.933795 -20.989375 
L 202.914941 -20.989375 
L 201.896087 -20.989375 
L 200.877232 -20.989375 
L 199.858378 -20.989375 
L 198.839524 -20.989375 
L 197.82067 -20.989375 
L 196.801815 -20.989375 
L 195.782961 -20.989375 
L 194.764107 -20.989375 
L 193.745253 -20.989375 
L 192.726398 -20.989375 
L 191.707544 -20.989375 
L 190.68869 -20.989375 
L 189.669836 -20.989375 
L 188.650981 -20.989375 
L 187.632127 -20.989375 
L 186.613273 -20.989375 
L 185.594418 -20.989375 
L 184.575564 -20.989375 
L 183.55671 -20.989375 
L 182.537856 -20.989375 
L 181.519001 -20.989375 
L 180.500147 -20.989375 
L 179.481293 -20.989375 
L 178.462439 -20.989375 
L 177.443584 -20.989375 
L 176.42473 -20.989375 
L 175.405876 -20.989375 
L 174.387021 -20.989375 
L 173.368167 -20.989375 
L 172.349313 -20.989375 
L 171.330459 -20.989375 
L 170.311604 -20.989375 
L 169.29275 -20.989375 
L 168.273896 -20.989375 
L 167.255042 -20.989375 
L 166.236187 -20.989375 
L 165.217333 -20.989375 
L 164.198479 -20.989375 
L 163.179624 -20.989375 
L 162.16077 -20.989375 
L 161.141916 -20.989375 
L 160.123062 -20.989375 
L 159.104207 -20.989375 
L 158.085353 -20.989375 
L 157.066499 -20.989375 
L 156.047645 -20.989375 
L 155.02879 -20.989375 
L 154.009936 -20.989375 
L 152.991082 -20.989375 
L 151.972227 -20.989375 
L 150.953373 -20.989375 
L 149.934519 -20.989375 
L 148.915665 -20.989375 
L 147.89681 -20.989375 
L 146.877956 -20.989375 
L 145.859102 -20.989375 
L 144.840248 -20.989375 
L 143.821393 -20.989375 
L 142.802539 -20.989375 
L 141.783685 -20.989375 
L 140.76483 -20.989375 
L 139.745976 -20.989375 
L 138.727122 -20.989375 
L 137.708268 -20.989375 
L 136.689413 -20.989375 
L 135.670559 -20.989375 
L 134.651705 -20.989375 
L 133.632851 -20.989375 
L 132.613996 -20.989375 
L 131.595142 -20.989375 
L 130.576288 -20.989375 
L 129.557433 -20.989375 
L 128.538579 -20.989375 
L 127.519725 -20.989375 
L 126.500871 -20.989375 
L 125.482016 -20.989375 
L 124.463162 -20.989375 
L 123.444308 -20.989375 
L 122.425454 -20.989375 
L 121.406599 -20.989375 
L 120.387745 -20.989375 
L 119.368891 -20.989375 
L 118.350037 -20.989375 
L 117.331182 -20.989375 
L 116.312328 -20.989375 
L 115.293474 -20.989375 
L 114.274619 -20.989375 
L 113.255765 -20.989375 
L 112.236911 -20.989375 
L 111.218057 -20.989375 
L 110.199202 -20.989375 
L 109.180348 -20.989375 
L 108.161494 -20.989375 
L 107.14264 -20.989375 
L 106.123785 -20.989375 
L 105.104931 -20.989375 
L 104.086077 -20.989375 
L 103.067222 -20.989375 
L 102.048368 -20.989375 
L 101.029514 -20.989375 
L 100.01066 -20.989375 
L 98.991805 -20.989375 
L 97.972951 -20.989375 
L 96.954097 -20.989375 
L 95.935243 -20.989375 
L 94.916388 -20.989375 
L 93.897534 -20.989375 
L 92.87868 -20.989375 
L 91.859825 -20.989375 
L 90.840971 -20.989375 
L 89.822117 -20.989375 
L 88.803263 -20.989375 
L 87.784408 -20.989375 
L 86.765554 -20.989375 
L 85.7467 -20.989375 
L 84.727846 -20.989375 
L 83.708991 -20.989375 
L 82.690137 -20.989375 
L 81.671283 -20.989375 
L 80.652428 -20.989375 
L 79.633574 -20.989375 
L 78.61472 -20.989375 
L 77.595866 -20.989375 
L 76.577011 -20.989375 
L 75.558157 -20.989375 
L 74.539303 -20.989375 
L 73.520449 -20.989375 
L 72.501594 -20.989375 
L 71.48274 -20.989375 
L 70.463886 -20.989375 
L 69.445031 -20.989375 
L 68.426177 -20.989375 
L 67.407323 -20.989375 
L 66.388469 -20.989375 
L 65.369614 -20.989375 
L 64.35076 -20.989375 
L 63.331906 -20.989375 
L 62.313052 -20.989375 
L 61.294197 -20.989375 
L 60.275343 -20.989375 
L 59.256489 -20.989375 
L 58.237635 -20.989375 
L 57.21878 -20.989375 
L 56.199926 -20.989375 
L 55.181072 -20.989375 
L 54.162217 -20.989375 
L 53.143363 -20.989375 
L 52.124509 -20.989375 
L 51.105655 -20.989375 
L 50.0868 -20.989375 
L 49.067946 -20.989375 
L 48.049092 -20.989375 
L 47.030238 -20.989375 
L 46.011383 -20.989375 
L 44.992529 -20.989375 
L 43.973675 -20.989375 
L 42.95482 -20.989375 
L 41.935966 -20.989375 
L 40.917112 -20.989375 
L 39.898258 -20.989375 
L 38.879403 -20.989375 
L 37.860549 -20.989375 
L 36.841695 -20.989375 
L 35.822841 -20.989375 
L 34.803986 -20.989375 
L 33.785132 -20.989375 
L 32.766278 -20.989375 
L 31.747423 -20.989375 
L 30.728569 -20.989375 
L 29.709715 -20.989375 
L 28.690861 -20.989375 
L 27.672006 -20.989375 
L 26.653152 -20.989375 
L 25.634298 -20.989375 
L 24.615444 -20.989375 
L 23.596589 -20.989375 
L 22.577735 -20.989375 
L 21.558881 -20.989375 
L 20.540026 -20.989375 
L 19.521172 -20.989375 
L 18.502318 -20.989375 
L 17.483464 -20.989375 
L 16.464609 -20.989375 
z
" style="stroke: #3b82f6; stroke-opacity: 0.15"/>
    </defs>
    <g clip-path="url(#p9a074504bb)">
     <use xlink:href="#m70733ac7db" x="0" y="88.093375" style="fill: #3b82f6; fill-opacity: 0.15; stroke: #3b82f6; stroke-opacity: 0.15"/>
    </g>
   </g>
   <g id="matplotlib.axis_1">
    <g id="xtick_1">
     <g id="line2d_1">
      <defs>
       <path id="m38c7ea8f8c" d="M 0 0 
L 0 3 
" style="stroke: #94a3b8; stroke-width: 0.5"/>
      </defs>
      <g>
       <use xlink:href="#m38c7ea8f8c" x="55.455379" y="67.104" style="fill: #94a3b8; stroke: #94a3b8; stroke-width: 0.5"/>
      </g>
     </g>
     <g id="text_1">
      <!-- 65 -->
      <g style="fill: #94a3b8" transform="translate(51.001629 77.422906) scale(0.07 -0.07)">
       <defs>
        <path id="DejaVuSans-36" d="M 2113 2584 
Q 1688 2584 1439 2293 
Q 1191 2003 1191 1497 
Q 1191 994 1439 701 
Q 1688 409 2113 409 
Q 2538 409 2786 701 
Q 3034 994 3034 1497 
Q 3034 2003 2786 2293 
Q 2538 2584 2113 2584 
z
M 3366 4563 
L 3366 3988 
Q 3128 4100 2886 4159 
Q 2644 4219 2406 4219 
Q 1781 4219 1451 3797 
Q 1122 3375 1075 2522 
Q 1259 2794 1537 2939 
Q 1816 3084 2150 3084 
Q 2853 3084 3261 2657 
Q 3669 2231 3669 1497 
Q 3669 778 3244 343 
Q 2819 -91 2113 -91 
Q 1303 -91 875 529 
Q 447 1150 447 2328 
Q 447 3434 972 4092 
Q 1497 4750 2381 4750 
Q 2619 4750 2861 4703 
Q 3103 4656 3366 4563 
z
" transform="scale(0.015625)"/>
        <path id="DejaVuSans-35" d="M 691 4666 
L 3169 4666 
L 3169 4134 
L 1269 4134 
L 1269 2991 
Q 1406 3038 1543 3061 
Q 1681 3084 1819 3084 
Q 2600 3084 3056 2656 
Q 3513 2228 3513 1497 
Q 3513 744 3044 326 
Q 2575 -91 1722 -91 
Q 1428 -91 1123 -41 
Q 819 9 494 109 
L 494 744 
Q 775 591 1075 516 
Q 1375 441 1709 441 
Q 2250 441 2565 725 
Q 2881 1009 2881 1497 
Q 2881 1984 2565 2268 
Q 2250 2553 1709 2553 
Q 1456 2553 1204 2497 
Q 953 2441 691 2322 
L 691 4666 
z
" transform="scale(0.015625)"/>
       </defs>
       <use xlink:href="#DejaVuSans-36"/>
       <use xlink:href="#DejaVuSans-35" transform="translate(63.623047 0)"/>
      </g>
     </g>
    </g>
    <g id="xtick_2">
     <g id="line2d_2">
      <g>
       <use xlink:href="#m38c7ea8f8c" x="117.840609" y="67.104" style="fill: #94a3b8; stroke: #94a3b8; stroke-width: 0.5"/>
      </g>
     </g>
     <g id="text_2">
      <!-- 73 -->
      <g style="fill: #94a3b8" transform="translate(113.386859 77.422906) scale(0.07 -0.07)">
       <defs>
        <path id="DejaVuSans-37" d="M 525 4666 
L 3525 4666 
L 3525 4397 
L 1831 0 
L 1172 0 
L 2766 4134 
L 525 4134 
L 525 4666 
z
" transform="scale(0.015625)"/>
        <path id="DejaVuSans-33" d="M 2597 2516 
Q 3050 2419 3304 2112 
Q 3559 1806 3559 1356 
Q 3559 666 3084 287 
Q 2609 -91 1734 -91 
Q 1441 -91 1130 -33 
Q 819 25 488 141 
L 488 750 
Q 750 597 1062 519 
Q 1375 441 1716 441 
Q 2309 441 2620 675 
Q 2931 909 2931 1356 
Q 2931 1769 2642 2001 
Q 2353 2234 1838 2234 
L 1294 2234 
L 1294 2753 
L 1863 2753 
Q 2328 2753 2575 2939 
Q 2822 3125 2822 3475 
Q 2822 3834 2567 4026 
Q 2313 4219 1838 4219 
Q 1578 4219 1281 4162 
Q 984 4106 628 3988 
L 628 4550 
Q 988 4650 1302 4700 
Q 1616 4750 1894 4750 
Q 2613 4750 3031 4423 
Q 3450 4097 3450 3541 
Q 3450 3153 3228 2886 
Q 3006 2619 2597 2516 
z
" transform="scale(0.015625)"/>
       </defs>
       <use xlink:href="#DejaVuSans-37"/>
       <use xlink:href="#DejaVuSans-33" transform="translate(63.623047 0)"/>
      </g>
     </g>
    </g>
    <g id="xtick_3">
     <g id="line2d_3">
      <g>
       <use xlink:href="#m38c7ea8f8c" x="180.22584" y="67.104" style="fill: #94a3b8; stroke: #94a3b8; stroke-width: 0.5"/>
      </g>
     </g>
     <g id="text_3">
      <!-- 81 -->
      <g style="fill: #94a3b8" transform="translate(175.77209 77.422906) scale(0.07 -0.07)">
       <defs>
        <path id="DejaVuSans-38" d="M 2034 2216 
Q 1584 2216 1326 1975 
Q 1069 1734 1069 1313 
Q 1069 891 1326 650 
Q 1584 409 2034 409 
Q 2484 409 2743 651 
Q 3003 894 3003 1313 
Q 3003 1734 2745 1975 
Q 2488 2216 2034 2216 
z
M 1403 2484 
Q 997 2584 770 2862 
Q 544 3141 544 3541 
Q 544 4100 942 4425 
Q 1341 4750 2034 4750 
Q 2731 4750 3128 4425 
Q 3525 4100 3525 3541 
Q 3525 3141 3298 2862 
Q 3072 2584 2669 2484 
Q 3125 2378 3379 2068 
Q 3634 1759 3634 1313 
Q 3634 634 3220 271 
Q 2806 -91 2034 -91 
Q 1263 -91 848 271 
Q 434 634 434 1313 
Q 434 1759 690 2068 
Q 947 2378 1403 2484 
z
M 1172 3481 
Q 1172 3119 1398 2916 
Q 1625 2713 2034 2713 
Q 2441 2713 2670 2916 
Q 2900 3119 2900 3481 
Q 2900 3844 2670 4047 
Q 2441 4250 2034 4250 
Q 1625 4250 1398 4047 
Q 1172 3844 1172 3481 
z
" transform="scale(0.015625)"/>
        <path id="DejaVuSans-31" d="M 794 531 
L 1825 531 
L 1825 4091 
L 703 3866 
L 703 4441 
L 1819 4666 
L 2450 4666 
L 2450 531 
L 3481 531 
L 3481 0 
L 794 0 
L 794 531 
z
" transform="scale(0.015625)"/>
       </defs>
       <use xlink:href="#DejaVuSans-38"/>
       <use xlink:href="#DejaVuSans-31" transform="translate(63.623047 0)"/>
      </g>
     </g>
    </g>
    <g id="text_4">
     <!-- F -->
     <g style="fill: #94a3b8" transform="translate(115.827562 85.197594) scale(0.07 -0.07)">
      <defs>
       <path id="DejaVuSans-46" d="M 628 4666 
L 3309 4666 
L 3309 4134 
L 1259 4134 
L 1259 2759 
L 3109 2759 
L 3109 2228 
L 1259 2228 
L 1259 0 
L 628 0 
L 628 4666 
z
" transform="scale(0.015625)"/>
      </defs>
      <use xlink:href="#DejaVuSans-46"/>
     </g>
    </g>
   </g>
   <g id="matplotlib.axis_2">
    <g id="text_5">
     <!-- p(y) -->
     <g style="fill: #94a3b8" transform="translate(1.44 32.816219) scale(0.07 -0.07)">
      <defs>
       <path id="DejaVuSans-70" d="M 1159 525 
L 1159 -1331 
L 581 -1331 
L 581 3500 
L 1159 3500 
L 1159 2969 
Q 1341 3281 1617 3432 
Q 1894 3584 2278 3584 
Q 2916 3584 3314 3078 
Q 3713 2572 3713 1747 
Q 3713 922 3314 415 
Q 2916 -91 2278 -91 
Q 1894 -91 1617 61 
Q 1341 213 1159 525 
z
M 3116 1747 
Q 3116 2381 2855 2742 
Q 2594 3103 2138 3103 
Q 1681 3103 1420 2742 
Q 1159 2381 1159 1747 
Q 1159 1113 1420 752 
Q 1681 391 2138 391 
Q 2594 391 2855 752 
Q 3116 1113 3116 1747 
z
" transform="scale(0.015625)"/>
       <path id="DejaVuSans-28" d="M 1984 4856 
Q 1566 4138 1362 3434 
Q 1159 2731 1159 2009 
Q 1159 1288 1364 580 
Q 1569 -128 1984 -844 
L 1484 -844 
Q 1016 -109 783 600 
Q 550 1309 550 2009 
Q 550 2706 781 3412 
Q 1013 4119 1484 4856 
L 1984 4856 
z
" transform="scale(0.015625)"/>
       <path id="DejaVuSans-79" d="M 2059 -325 
Q 1816 -950 1584 -1140 
Q 1353 -1331 966 -1331 
L 506 -1331 
L 506 -850 
L 844 -850 
Q 1081 -850 1212 -737 
Q 1344 -625 1503 -206 
L 1606 56 
L 191 3500 
L 800 3500 
L 1894 763 
L 2988 3500 
L 3597 3500 
L 2059 -325 
z
" transform="scale(0.015625)"/>
       <path id="DejaVuSans-29" d="M 513 4856 
L 1013 4856 
Q 1481 4119 1714 3412 
Q 1947 2706 1947 2009 
Q 1947 1309 1714 600 
Q 1481 -109 1013 -844 
L 513 -844 
Q 928 -128 1133 580 
Q 1338 1288 1338 2009 
Q 1338 2731 1133 3434 
Q 928 4138 513 4856 
z
" transform="scale(0.015625)"/>
      </defs>
      <use xlink:href="#DejaVuSans-70"/>
      <use xlink:href="#DejaVuSans-28" transform="translate(63.476562 0)"/>
      <use xlink:href="#DejaVuSans-79" transform="translate(102.490234 0)"/>
      <use xlink:href="#DejaVuSans-29" transform="translate(161.669922 0)"/>
     </g>
    </g>
   </g>
   <g id="line2d_4">
    <path d="M 16.464609 67.095108 
L 34.803986 66.956686 
L 42.95482 66.672638 
L 48.049092 66.304284 
L 52.124509 65.832314 
L 56.199926 65.135026 
L 59.256489 64.418448 
L 62.313052 63.49563 
L 65.369614 62.327905 
L 68.426177 60.876425 
L 71.48274 59.104751 
L 74.539303 56.982062 
L 77.595866 54.48682 
L 80.652428 51.610656 
L 83.708991 48.36216 
L 86.765554 44.770155 
L 90.840971 39.538693 
L 96.954097 31.150388 
L 102.048368 24.250836 
L 105.104931 20.433829 
L 108.161494 17.033712 
L 110.199202 15.065991 
L 112.236911 13.380371 
L 114.274619 12.008757 
L 116.312328 10.977629 
L 118.350037 10.307195 
L 120.387745 10.010727 
L 122.425454 10.094128 
L 124.463162 10.555734 
L 126.500871 11.386375 
L 128.538579 12.569668 
L 130.576288 14.082563 
L 132.613996 15.896087 
L 134.651705 17.976264 
L 137.708268 21.512757 
L 140.76483 25.424709 
L 145.859102 32.389926 
L 151.972227 40.721456 
L 156.047645 45.853075 
L 159.104207 49.348948 
L 162.16077 52.490633 
L 165.217333 55.255515 
L 168.273896 57.640331 
L 171.330459 59.657701 
L 174.387021 61.332275 
L 177.443584 62.696879 
L 180.500147 63.788962 
L 183.55671 64.647559 
L 186.613273 65.310885 
L 190.68869 65.952647 
L 195.782961 66.466589 
L 201.896087 66.807257 
L 210.046921 67.006474 
L 219.216609 67.079449 
L 219.216609 67.079449 
" clip-path="url(#p9a074504bb)" style="fill: none; stroke: #3b82f6; stroke-width: 1.5; stroke-linecap: square"/>
   </g>
   <g id="line2d_5">
    <path d="M 120.959871 67.104 
L 120.959871 1.44 
" clip-path="url(#p9a074504bb)" style="fill: none; stroke-dasharray: 3.7,1.6; stroke-dashoffset: 0; stroke: #ef4444; stroke-opacity: 0.7"/>
   </g>
   <g id="patch_3">
    <path d="M 16.464609 67.104 
L 16.464609 1.44 
" style="fill: none; stroke: #94a3b8; stroke-width: 0.5; stroke-linejoin: miter; stroke-linecap: square"/>
   </g>
   <g id="patch_4">
    <path d="M 16.464609 67.104 
L 219.216609 67.104 
" style="fill: none; stroke: #94a3b8; stroke-width: 0.5; stroke-linejoin: miter; stroke-linecap: square"/>
   </g>
  </g>
 </g>
 <defs>
  <clipPath id="p9a074504bb">
   <rect x="16.464609" y="1.44" width="202.752" height="65.664"/>
  </clipPath>
 </defs>
</svg>
